<svg width="406" height="360" viewBox="0 0 406 360" fill="none" xmlns="http://www.w3.org/2000/svg">
<path d="M320.51 350H390.44L238 10.71H168.07L16 350H85.19L114.42 285.99H292.02L320.51 350ZM266.12 226.42H139.95L203.22 81.75L266.12 226.42Z" fill="#F2F2F2"/>
<path d="M320.51 350L311.374 354.066L314.015 360H320.51V350ZM390.44 350V360H405.896L399.562 345.902L390.44 350ZM238 10.71L247.122 6.61171L244.47 0.70998H238V10.71ZM168.07 10.71V0.70998H161.594L158.945 6.61999L168.07 10.71ZM16 350L6.87465 345.91L0.559509 360H16V350ZM85.19 350V360H91.6168L94.2865 354.154L85.19 350ZM114.42 285.99V275.99H107.993L105.324 281.836L114.42 285.99ZM292.02 285.99L301.156 281.924L298.515 275.99H292.02V285.99ZM266.12 226.42V236.42H281.372L275.291 222.433L266.12 226.42ZM139.95 226.42L130.788 222.413L124.662 236.42H139.95V226.42ZM203.22 81.75L212.391 77.7627L203.247 56.7319L194.058 77.743L203.22 81.75ZM320.51 360H390.44V340H320.51V360ZM399.562 345.902L247.122 6.61171L228.878 14.8082L381.318 354.098L399.562 345.902ZM238 0.70998H168.07V20.71H238V0.70998ZM158.945 6.61999L6.87465 345.91L25.1253 354.09L177.195 14.8L158.945 6.61999ZM16 360H85.19V340H16V360ZM94.2865 354.154L123.516 290.144L105.324 281.836L76.0936 345.846L94.2865 354.154ZM114.42 295.99H292.02V275.99H114.42V295.99ZM282.884 290.056L311.374 354.066L329.646 345.934L301.156 281.924L282.884 290.056ZM266.12 216.42H139.95V236.42H266.12V216.42ZM149.112 230.427L212.382 85.757L194.058 77.743L130.788 222.413L149.112 230.427ZM194.049 85.7373L256.949 230.407L275.291 222.433L212.391 77.7627L194.049 85.7373Z" fill="#F2F2F2"/>
</svg>
