<svg width="301" height="360" viewBox="0 0 301 360" fill="none" xmlns="http://www.w3.org/2000/svg">
<path d="M120.7 10.71C78.89 10.71 28.94 10.71 -12.5 10.71V350C28.94 350 78.89 350 120.7 350C239.47 350 292.01 263.42 290.53 177.58C289.05 93.59 237.25 10.71 120.7 10.71ZM50.77 71.02H120.7C194.33 71.02 225.41 123.93 226.89 176.84C228.37 232.34 198.03 288.58 120.7 288.58H50.77V71.02Z" fill="#F2F2F2"/>
<path d="M-12.5 10.71V0.70998H-22.5V10.71H-12.5ZM-12.5 350H-22.5V360H-12.5V350ZM290.53 177.58L300.529 177.408L300.528 177.404L290.53 177.58ZM50.77 71.02V61.02H40.77V71.02H50.77ZM226.89 176.84L236.886 176.573L236.886 176.56L226.89 176.84ZM50.77 288.58H40.77V298.58H50.77V288.58ZM120.7 0.70998C120.618 0.70998 120.537 0.70998 120.455 0.70998C120.373 0.70998 120.291 0.70998 120.21 0.70998C120.128 0.70998 120.046 0.70998 119.964 0.70998C119.882 0.70998 119.801 0.70998 119.719 0.70998C119.637 0.70998 119.555 0.70998 119.473 0.70998C119.391 0.70998 119.309 0.70998 119.227 0.70998C119.145 0.70998 119.063 0.70998 118.981 0.70998C118.899 0.70998 118.816 0.70998 118.734 0.70998C118.652 0.70998 118.57 0.70998 118.488 0.70998C118.406 0.70998 118.323 0.70998 118.241 0.70998C118.159 0.70998 118.076 0.70998 117.994 0.70998C117.912 0.70998 117.829 0.70998 117.747 0.70998C117.665 0.70998 117.582 0.70998 117.5 0.70998C117.417 0.70998 117.335 0.70998 117.252 0.70998C117.17 0.70998 117.087 0.70998 117.005 0.70998C116.922 0.70998 116.84 0.70998 116.757 0.70998C116.674 0.70998 116.592 0.70998 116.509 0.70998C116.426 0.70998 116.344 0.70998 116.261 0.70998C116.178 0.70998 116.095 0.70998 116.013 0.70998C115.93 0.70998 115.847 0.70998 115.764 0.70998C115.681 0.70998 115.598 0.70998 115.515 0.70998C115.433 0.70998 115.35 0.70998 115.267 0.70998C115.184 0.70998 115.101 0.70998 115.018 0.70998C114.935 0.70998 114.852 0.70998 114.769 0.70998C114.685 0.70998 114.602 0.70998 114.519 0.70998C114.436 0.70998 114.353 0.70998 114.27 0.70998C114.187 0.70998 114.103 0.70998 114.02 0.70998C113.937 0.70998 113.854 0.70998 113.77 0.70998C113.687 0.70998 113.604 0.70998 113.52 0.70998C113.437 0.70998 113.354 0.70998 113.27 0.70998C113.187 0.70998 113.103 0.70998 113.02 0.70998C112.936 0.70998 112.853 0.70998 112.769 0.70998C112.686 0.70998 112.602 0.70998 112.519 0.70998C112.435 0.70998 112.351 0.70998 112.268 0.70998C112.184 0.70998 112.101 0.70998 112.017 0.70998C111.933 0.70998 111.85 0.70998 111.766 0.70998C111.682 0.70998 111.598 0.70998 111.514 0.70998C111.431 0.70998 111.347 0.70998 111.263 0.70998C111.179 0.70998 111.095 0.70998 111.011 0.70998C110.928 0.70998 110.844 0.70998 110.76 0.70998C110.676 0.70998 110.592 0.70998 110.508 0.70998C110.424 0.70998 110.34 0.70998 110.256 0.70998C110.172 0.70998 110.088 0.70998 110.003 0.70998C109.919 0.70998 109.835 0.70998 109.751 0.70998C109.667 0.70998 109.583 0.70998 109.499 0.70998C109.414 0.70998 109.33 0.70998 109.246 0.70998C109.162 0.70998 109.077 0.70998 108.993 0.70998C108.909 0.70998 108.824 0.70998 108.74 0.70998C108.656 0.70998 108.571 0.70998 108.487 0.70998C108.402 0.70998 108.318 0.70998 108.234 0.70998C108.149 0.70998 108.065 0.70998 107.98 0.70998C107.896 0.70998 107.811 0.70998 107.727 0.70998C107.642 0.70998 107.557 0.70998 107.473 0.70998C107.388 0.70998 107.304 0.70998 107.219 0.70998C107.134 0.70998 107.05 0.70998 106.965 0.70998C106.88 0.70998 106.796 0.70998 106.711 0.70998C106.626 0.70998 106.541 0.70998 106.456 0.70998C106.372 0.70998 106.287 0.70998 106.202 0.70998C106.117 0.70998 106.032 0.70998 105.947 0.70998C105.862 0.70998 105.778 0.70998 105.693 0.70998C105.608 0.70998 105.523 0.70998 105.438 0.70998C105.353 0.70998 105.268 0.70998 105.183 0.70998C105.098 0.70998 105.013 0.70998 104.928 0.70998C104.842 0.70998 104.757 0.70998 104.672 0.70998C104.587 0.70998 104.502 0.70998 104.417 0.70998C104.332 0.70998 104.246 0.70998 104.161 0.70998C104.076 0.70998 103.991 0.70998 103.905 0.70998C103.82 0.70998 103.735 0.70998 103.65 0.70998C103.564 0.70998 103.479 0.70998 103.394 0.70998C103.308 0.70998 103.223 0.70998 103.137 0.70998C103.052 0.70998 102.967 0.70998 102.881 0.70998C102.796 0.70998 102.71 0.70998 102.625 0.70998C102.539 0.70998 102.454 0.70998 102.368 0.70998C102.283 0.70998 102.197 0.70998 102.112 0.70998C102.026 0.70998 101.94 0.70998 101.855 0.70998C101.769 0.70998 101.684 0.70998 101.598 0.70998C101.512 0.70998 101.427 0.70998 101.341 0.70998C101.255 0.70998 101.169 0.70998 101.084 0.70998C100.998 0.70998 100.912 0.70998 100.826 0.70998C100.741 0.70998 100.655 0.70998 100.569 0.70998C100.483 0.70998 100.397 0.70998 100.311 0.70998C100.225 0.70998 100.14 0.70998 100.054 0.70998C99.9677 0.70998 99.8818 0.70998 99.7958 0.70998C99.7099 0.70998 99.6239 0.70998 99.5379 0.70998C99.4519 0.70998 99.3658 0.70998 99.2798 0.70998C99.1938 0.70998 99.1077 0.70998 99.0216 0.70998C98.9355 0.70998 98.8494 0.70998 98.7633 0.70998C98.6772 0.70998 98.591 0.70998 98.5049 0.70998C98.4187 0.70998 98.3325 0.70998 98.2463 0.70998C98.1601 0.70998 98.0739 0.70998 97.9876 0.70998C97.9014 0.70998 97.8151 0.70998 97.7289 0.70998C97.6426 0.70998 97.5563 0.70998 97.4699 0.70998C97.3836 0.70998 97.2973 0.70998 97.2109 0.70998C97.1245 0.70998 97.0382 0.70998 96.9518 0.70998C96.8654 0.70998 96.7789 0.70998 96.6925 0.70998C96.6061 0.70998 96.5196 0.70998 96.4331 0.70998C96.3466 0.70998 96.2601 0.70998 96.1736 0.70998C96.0871 0.70998 96.0006 0.70998 95.914 0.70998C95.8275 0.70998 95.7409 0.70998 95.6543 0.70998C95.5677 0.70998 95.4811 0.70998 95.3945 0.70998C95.3078 0.70998 95.2212 0.70998 95.1345 0.70998C95.0479 0.70998 94.9612 0.70998 94.8745 0.70998C94.7878 0.70998 94.701 0.70998 94.6143 0.70998C94.5276 0.70998 94.4408 0.70998 94.354 0.70998C94.2672 0.70998 94.1804 0.70998 94.0936 0.70998C94.0068 0.70998 93.92 0.70998 93.8331 0.70998C93.7463 0.70998 93.6594 0.70998 93.5725 0.70998C93.4856 0.70998 93.3988 0.70998 93.3118 0.70998C93.2249 0.70998 93.138 0.70998 93.051 0.70998C92.9641 0.70998 92.8771 0.70998 92.7901 0.70998C92.7031 0.70998 92.6161 0.70998 92.5291 0.70998C92.442 0.70998 92.355 0.70998 92.2679 0.70998C92.1809 0.70998 92.0938 0.70998 92.0067 0.70998C91.9196 0.70998 91.8325 0.70998 91.7454 0.70998C91.6583 0.70998 91.5711 0.70998 91.4839 0.70998C91.3968 0.70998 91.3096 0.70998 91.2224 0.70998C91.1352 0.70998 91.048 0.70998 90.9608 0.70998C90.8736 0.70998 90.7863 0.70998 90.699 0.70998C90.6118 0.70998 90.5245 0.70998 90.4372 0.70998C90.3499 0.70998 90.2626 0.70998 90.1753 0.70998C90.088 0.70998 90.0006 0.70998 89.9133 0.70998C89.8259 0.70998 89.7385 0.70998 89.6511 0.70998C89.5637 0.70998 89.4763 0.70998 89.3889 0.70998C89.3015 0.70998 89.2141 0.70998 89.1266 0.70998C89.0391 0.70998 88.9517 0.70998 88.8642 0.70998C88.7767 0.70998 88.6892 0.70998 88.6017 0.70998C88.5142 0.70998 88.4266 0.70998 88.3391 0.70998C88.2515 0.70998 88.164 0.70998 88.0764 0.70998C87.9888 0.70998 87.9012 0.70998 87.8136 0.70998C87.726 0.70998 87.6384 0.70998 87.5508 0.70998C87.4631 0.70998 87.3755 0.70998 87.2878 0.70998C87.2001 0.70998 87.1125 0.70998 87.0248 0.70998C86.9371 0.70998 86.8494 0.70998 86.7616 0.70998C86.6739 0.70998 86.5862 0.70998 86.4984 0.70998C86.4107 0.70998 86.3229 0.70998 86.2351 0.70998C86.1473 0.70998 86.0595 0.70998 85.9717 0.70998C85.8839 0.70998 85.7961 0.70998 85.7082 0.70998C85.6204 0.70998 85.5325 0.70998 85.4447 0.70998C85.3568 0.70998 85.2689 0.70998 85.181 0.70998C85.0931 0.70998 85.0052 0.70998 84.9173 0.70998C84.8294 0.70998 84.7414 0.70998 84.6535 0.70998C84.5655 0.70998 84.4776 0.70998 84.3896 0.70998C84.3016 0.70998 84.2136 0.70998 84.1256 0.70998C84.0376 0.70998 83.9496 0.70998 83.8616 0.70998C83.7735 0.70998 83.6855 0.70998 83.5974 0.70998C83.5094 0.70998 83.4213 0.70998 83.3332 0.70998C83.2452 0.70998 83.1571 0.70998 83.0689 0.70998C82.9808 0.70998 82.8927 0.70998 82.8046 0.70998C82.7164 0.70998 82.6283 0.70998 82.5401 0.70998C82.452 0.70998 82.3638 0.70998 82.2756 0.70998C82.1874 0.70998 82.0992 0.70998 82.011 0.70998C81.9228 0.70998 81.8346 0.70998 81.7464 0.70998C81.6581 0.70998 81.5699 0.70998 81.4816 0.70998C81.3934 0.70998 81.3051 0.70998 81.2168 0.70998C81.1285 0.70998 81.0402 0.70998 80.9519 0.70998C80.8636 0.70998 80.7753 0.70998 80.687 0.70998C80.5987 0.70998 80.5103 0.70998 80.422 0.70998C80.3336 0.70998 80.2452 0.70998 80.1569 0.70998C80.0685 0.70998 79.9801 0.70998 79.8917 0.70998C79.8033 0.70998 79.7149 0.70998 79.6265 0.70998C79.5381 0.70998 79.4496 0.70998 79.3612 0.70998C79.2727 0.70998 79.1843 0.70998 79.0958 0.70998C79.0074 0.70998 78.9189 0.70998 78.8304 0.70998C78.7419 0.70998 78.6534 0.70998 78.5649 0.70998C78.4764 0.70998 78.3879 0.70998 78.2993 0.70998C78.2108 0.70998 78.1223 0.70998 78.0337 0.70998C77.9452 0.70998 77.8566 0.70998 77.768 0.70998C77.6795 0.70998 77.5909 0.70998 77.5023 0.70998C77.4137 0.70998 77.3251 0.70998 77.2365 0.70998C77.1479 0.70998 77.0592 0.70998 76.9706 0.70998C76.882 0.70998 76.7933 0.70998 76.7047 0.70998C76.616 0.70998 76.5274 0.70998 76.4387 0.70998C76.35 0.70998 76.2614 0.70998 76.1727 0.70998C76.084 0.70998 75.9953 0.70998 75.9066 0.70998C75.8178 0.70998 75.7291 0.70998 75.6404 0.70998C75.5517 0.70998 75.4629 0.70998 75.3742 0.70998C75.2854 0.70998 75.1967 0.70998 75.1079 0.70998C75.0191 0.70998 74.9304 0.70998 74.8416 0.70998C74.7528 0.70998 74.664 0.70998 74.5752 0.70998C74.4864 0.70998 74.3976 0.70998 74.3088 0.70998C74.22 0.70998 74.1311 0.70998 74.0423 0.70998C73.9535 0.70998 73.8646 0.70998 73.7758 0.70998C73.6869 0.70998 73.598 0.70998 73.5092 0.70998C73.4203 0.70998 73.3314 0.70998 73.2425 0.70998C73.1536 0.70998 73.0648 0.70998 72.9758 0.70998C72.8869 0.70998 72.798 0.70998 72.7091 0.70998C72.6202 0.70998 72.5313 0.70998 72.4423 0.70998C72.3534 0.70998 72.2645 0.70998 72.1755 0.70998C72.0865 0.70998 71.9976 0.70998 71.9086 0.70998C71.8197 0.70998 71.7307 0.70998 71.6417 0.70998C71.5527 0.70998 71.4637 0.70998 71.3747 0.70998C71.2857 0.70998 71.1967 0.70998 71.1077 0.70998C71.0187 0.70998 70.9297 0.70998 70.8407 0.70998C70.7516 0.70998 70.6626 0.70998 70.5736 0.70998C70.4845 0.70998 70.3955 0.70998 70.3064 0.70998C70.2174 0.70998 70.1283 0.70998 70.0393 0.70998C69.9502 0.70998 69.8611 0.70998 69.772 0.70998C69.683 0.70998 69.5939 0.70998 69.5048 0.70998C69.4157 0.70998 69.3266 0.70998 69.2375 0.70998C69.1484 0.70998 69.0592 0.70998 68.9701 0.70998C68.881 0.70998 68.7919 0.70998 68.7028 0.70998C68.6136 0.70998 68.5245 0.70998 68.4353 0.70998C68.3462 0.70998 68.2571 0.70998 68.1679 0.70998C68.0787 0.70998 67.9896 0.70998 67.9004 0.70998C67.8112 0.70998 67.7221 0.70998 67.6329 0.70998C67.5437 0.70998 67.4545 0.70998 67.3653 0.70998C67.2762 0.70998 67.187 0.70998 67.0978 0.70998C67.0086 0.70998 66.9194 0.70998 66.8301 0.70998C66.7409 0.70998 66.6517 0.70998 66.5625 0.70998C66.4733 0.70998 66.3841 0.70998 66.2948 0.70998C66.2056 0.70998 66.1164 0.70998 66.0271 0.70998C65.9379 0.70998 65.8486 0.70998 65.7594 0.70998C65.6701 0.70998 65.5809 0.70998 65.4916 0.70998C65.4024 0.70998 65.3131 0.70998 65.2238 0.70998C65.1345 0.70998 65.0453 0.70998 64.956 0.70998C64.8667 0.70998 64.7774 0.70998 64.6881 0.70998C64.5989 0.70998 64.5096 0.70998 64.4203 0.70998C64.331 0.70998 64.2417 0.70998 64.1524 0.70998C64.0631 0.70998 63.9738 0.70998 63.8845 0.70998C63.7951 0.70998 63.7058 0.70998 63.6165 0.70998C63.5272 0.70998 63.4379 0.70998 63.3485 0.70998C63.2592 0.70998 63.1699 0.70998 63.0806 0.70998C62.9912 0.70998 62.9019 0.70998 62.8125 0.70998C62.7232 0.70998 62.6339 0.70998 62.5445 0.70998C62.4552 0.70998 62.3658 0.70998 62.2765 0.70998C62.1871 0.70998 62.0978 0.70998 62.0084 0.70998C61.919 0.70998 61.8297 0.70998 61.7403 0.70998C61.6509 0.70998 61.5616 0.70998 61.4722 0.70998C61.3828 0.70998 61.2935 0.70998 61.2041 0.70998C61.1147 0.70998 61.0253 0.70998 60.9359 0.70998C60.8466 0.70998 60.7572 0.70998 60.6678 0.70998C60.5784 0.70998 60.489 0.70998 60.3996 0.70998C60.3102 0.70998 60.2208 0.70998 60.1314 0.70998C60.0421 0.70998 59.9527 0.70998 59.8633 0.70998C59.7739 0.70998 59.6844 0.70998 59.595 0.70998C59.5056 0.70998 59.4162 0.70998 59.3268 0.70998C59.2374 0.70998 59.148 0.70998 59.0586 0.70998C58.9692 0.70998 58.8798 0.70998 58.7904 0.70998C58.701 0.70998 58.6115 0.70998 58.5221 0.70998C58.4327 0.70998 58.3433 0.70998 58.2539 0.70998C58.1644 0.70998 58.075 0.70998 57.9856 0.70998C57.8962 0.70998 57.8068 0.70998 57.7173 0.70998C57.6279 0.70998 57.5385 0.70998 57.4491 0.70998C57.3596 0.70998 57.2702 0.70998 57.1808 0.70998C57.0914 0.70998 57.0019 0.70998 56.9125 0.70998C56.8231 0.70998 56.7336 0.70998 56.6442 0.70998C56.5548 0.70998 56.4653 0.70998 56.3759 0.70998C56.2865 0.70998 56.197 0.70998 56.1076 0.70998C56.0182 0.70998 55.9287 0.70998 55.8393 0.70998C55.7499 0.70998 55.6605 0.70998 55.571 0.70998C55.4816 0.70998 55.3922 0.70998 55.3027 0.70998C55.2133 0.70998 55.1239 0.70998 55.0344 0.70998C54.945 0.70998 54.8556 0.70998 54.7661 0.70998C54.6767 0.70998 54.5873 0.70998 54.4978 0.70998C54.4084 0.70998 54.319 0.70998 54.2295 0.70998C54.1401 0.70998 54.0507 0.70998 53.9613 0.70998C53.8718 0.70998 53.7824 0.70998 53.693 0.70998C53.6035 0.70998 53.5141 0.70998 53.4247 0.70998C53.3353 0.70998 53.2458 0.70998 53.1564 0.70998C53.067 0.70998 52.9776 0.70998 52.8882 0.70998C52.7987 0.70998 52.7093 0.70998 52.6199 0.70998C52.5305 0.70998 52.4411 0.70998 52.3516 0.70998C52.2622 0.70998 52.1728 0.70998 52.0834 0.70998C51.994 0.70998 51.9046 0.70998 51.8152 0.70998C51.7258 0.70998 51.6363 0.70998 51.5469 0.70998C51.4575 0.70998 51.3681 0.70998 51.2787 0.70998C51.1893 0.70998 51.0999 0.70998 51.0105 0.70998C50.9211 0.70998 50.8317 0.70998 50.7423 0.70998C50.6529 0.70998 50.5636 0.70998 50.4742 0.70998C50.3848 0.70998 50.2954 0.70998 50.206 0.70998C50.1166 0.70998 50.0272 0.70998 49.9379 0.70998C49.8485 0.70998 49.7591 0.70998 49.6697 0.70998C49.5804 0.70998 49.491 0.70998 49.4016 0.70998C49.3122 0.70998 49.2229 0.70998 49.1335 0.70998C49.0442 0.70998 48.9548 0.70998 48.8654 0.70998C48.7761 0.70998 48.6867 0.70998 48.5974 0.70998C48.508 0.70998 48.4187 0.70998 48.3293 0.70998C48.24 0.70998 48.1506 0.70998 48.0613 0.70998C47.972 0.70998 47.8826 0.70998 47.7933 0.70998C47.704 0.70998 47.6146 0.70998 47.5253 0.70998C47.436 0.70998 47.3467 0.70998 47.2574 0.70998C47.168 0.70998 47.0787 0.70998 46.9894 0.70998C46.9001 0.70998 46.8108 0.70998 46.7215 0.70998C46.6322 0.70998 46.5429 0.70998 46.4536 0.70998C46.3643 0.70998 46.275 0.70998 46.1858 0.70998C46.0965 0.70998 46.0072 0.70998 45.9179 0.70998C45.8287 0.70998 45.7394 0.70998 45.6501 0.70998C45.5608 0.70998 45.4716 0.70998 45.3823 0.70998C45.2931 0.70998 45.2038 0.70998 45.1146 0.70998C45.0253 0.70998 44.9361 0.70998 44.8468 0.70998C44.7576 0.70998 44.6684 0.70998 44.5791 0.70998C44.4899 0.70998 44.4007 0.70998 44.3115 0.70998C44.2223 0.70998 44.1331 0.70998 44.0438 0.70998C43.9546 0.70998 43.8654 0.70998 43.7762 0.70998C43.687 0.70998 43.5979 0.70998 43.5087 0.70998C43.4195 0.70998 43.3303 0.70998 43.2411 0.70998C43.152 0.70998 43.0628 0.70998 42.9736 0.70998C42.8845 0.70998 42.7953 0.70998 42.7062 0.70998C42.617 0.70998 42.5279 0.70998 42.4387 0.70998C42.3496 0.70998 42.2605 0.70998 42.1713 0.70998C42.0822 0.70998 41.9931 0.70998 41.904 0.70998C41.8149 0.70998 41.7257 0.70998 41.6366 0.70998C41.5475 0.70998 41.4585 0.70998 41.3694 0.70998C41.2803 0.70998 41.1912 0.70998 41.1021 0.70998C41.013 0.70998 40.924 0.70998 40.8349 0.70998C40.7458 0.70998 40.6568 0.70998 40.5677 0.70998C40.4787 0.70998 40.3897 0.70998 40.3006 0.70998C40.2116 0.70998 40.1226 0.70998 40.0335 0.70998C39.9445 0.70998 39.8555 0.70998 39.7665 0.70998C39.6775 0.70998 39.5885 0.70998 39.4995 0.70998C39.4105 0.70998 39.3215 0.70998 39.2326 0.70998C39.1436 0.70998 39.0546 0.70998 38.9657 0.70998C38.8767 0.70998 38.7877 0.70998 38.6988 0.70998C38.6098 0.70998 38.5209 0.70998 38.432 0.70998C38.3431 0.70998 38.2541 0.70998 38.1652 0.70998C38.0763 0.70998 37.9874 0.70998 37.8985 0.70998C37.8096 0.70998 37.7207 0.70998 37.6318 0.70998C37.543 0.70998 37.4541 0.70998 37.3652 0.70998C37.2764 0.70998 37.1875 0.70998 37.0986 0.70998C37.0098 0.70998 36.921 0.70998 36.8321 0.70998C36.7433 0.70998 36.6545 0.70998 36.5657 0.70998C36.4769 0.70998 36.388 0.70998 36.2993 0.70998C36.2105 0.70998 36.1217 0.70998 36.0329 0.70998C35.9441 0.70998 35.8553 0.70998 35.7666 0.70998C35.6778 0.70998 35.5891 0.70998 35.5003 0.70998C35.4116 0.70998 35.3229 0.70998 35.2341 0.70998C35.1454 0.70998 35.0567 0.70998 34.968 0.70998C34.8793 0.70998 34.7906 0.70998 34.7019 0.70998C34.6132 0.70998 34.5246 0.70998 34.4359 0.70998C34.3472 0.70998 34.2586 0.70998 34.1699 0.70998C34.0813 0.70998 33.9927 0.70998 33.904 0.70998C33.8154 0.70998 33.7268 0.70998 33.6382 0.70998C33.5496 0.70998 33.461 0.70998 33.3724 0.70998C33.2838 0.70998 33.1953 0.70998 33.1067 0.70998C33.0181 0.70998 32.9296 0.70998 32.841 0.70998C32.7525 0.70998 32.6639 0.70998 32.5754 0.70998C32.4869 0.70998 32.3984 0.70998 32.3099 0.70998C32.2214 0.70998 32.1329 0.70998 32.0444 0.70998C31.9559 0.70998 31.8675 0.70998 31.779 0.70998C31.6906 0.70998 31.6021 0.70998 31.5137 0.70998C31.4252 0.70998 31.3368 0.70998 31.2484 0.70998C31.16 0.70998 31.0716 0.70998 30.9832 0.70998C30.8948 0.70998 30.8064 0.70998 30.7181 0.70998C30.6297 0.70998 30.5414 0.70998 30.453 0.70998C30.3647 0.70998 30.2763 0.70998 30.188 0.70998C30.0997 0.70998 30.0114 0.70998 29.9231 0.70998C29.8348 0.70998 29.7465 0.70998 29.6582 0.70998C29.57 0.70998 29.4817 0.70998 29.3934 0.70998C29.3052 0.70998 29.217 0.70998 29.1287 0.70998C29.0405 0.70998 28.9523 0.70998 28.8641 0.70998C28.7759 0.70998 28.6877 0.70998 28.5995 0.70998C28.5114 0.70998 28.4232 0.70998 28.335 0.70998C28.2469 0.70998 28.1588 0.70998 28.0706 0.70998C27.9825 0.70998 27.8944 0.70998 27.8063 0.70998C27.7182 0.70998 27.6301 0.70998 27.542 0.70998C27.454 0.70998 27.3659 0.70998 27.2779 0.70998C27.1898 0.70998 27.1018 0.70998 27.0138 0.70998C26.9257 0.70998 26.8377 0.70998 26.7497 0.70998C26.6617 0.70998 26.5738 0.70998 26.4858 0.70998C26.3978 0.70998 26.3099 0.70998 26.2219 0.70998C26.134 0.70998 26.0461 0.70998 25.9582 0.70998C25.8702 0.70998 25.7823 0.70998 25.6945 0.70998C25.6066 0.70998 25.5187 0.70998 25.4308 0.70998C25.343 0.70998 25.2551 0.70998 25.1673 0.70998C25.0795 0.70998 24.9917 0.70998 24.9039 0.70998C24.8161 0.70998 24.7283 0.70998 24.6405 0.70998C24.5527 0.70998 24.465 0.70998 24.3772 0.70998C24.2895 0.70998 24.2018 0.70998 24.114 0.70998C24.0263 0.70998 23.9386 0.70998 23.8509 0.70998C23.7633 0.70998 23.6756 0.70998 23.5879 0.70998C23.5003 0.70998 23.4126 0.70998 23.325 0.70998C23.2374 0.70998 23.1498 0.70998 23.0622 0.70998C22.9746 0.70998 22.887 0.70998 22.7994 0.70998C22.7119 0.70998 22.6243 0.70998 22.5368 0.70998C22.4493 0.70998 22.3617 0.70998 22.2742 0.70998C22.1867 0.70998 22.0992 0.70998 22.0118 0.70998C21.9243 0.70998 21.8368 0.70998 21.7494 0.70998C21.6619 0.70998 21.5745 0.70998 21.4871 0.70998C21.3997 0.70998 21.3123 0.70998 21.2249 0.70998C21.1376 0.70998 21.0502 0.70998 20.9628 0.70998C20.8755 0.70998 20.7882 0.70998 20.7009 0.70998C20.6135 0.70998 20.5262 0.70998 20.439 0.70998C20.3517 0.70998 20.2644 0.70998 20.1772 0.70998C20.0899 0.70998 20.0027 0.70998 19.9155 0.70998C19.8283 0.70998 19.7411 0.70998 19.6539 0.70998C19.5667 0.70998 19.4795 0.70998 19.3924 0.70998C19.3052 0.70998 19.2181 0.70998 19.131 0.70998C19.0439 0.70998 18.9568 0.70998 18.8697 0.70998C18.7826 0.70998 18.6955 0.70998 18.6085 0.70998C18.5215 0.70998 18.4344 0.70998 18.3474 0.70998C18.2604 0.70998 18.1734 0.70998 18.0864 0.70998C17.9994 0.70998 17.9125 0.70998 17.8255 0.70998C17.7386 0.70998 17.6517 0.70998 17.5648 0.70998C17.4779 0.70998 17.391 0.70998 17.3041 0.70998C17.2172 0.70998 17.1304 0.70998 17.0435 0.70998C16.9567 0.70998 16.8699 0.70998 16.7831 0.70998C16.6963 0.70998 16.6095 0.70998 16.5227 0.70998C16.436 0.70998 16.3492 0.70998 16.2625 0.70998C16.1758 0.70998 16.0891 0.70998 16.0024 0.70998C15.9157 0.70998 15.829 0.70998 15.7424 0.70998C15.6557 0.70998 15.5691 0.70998 15.4825 0.70998C15.3958 0.70998 15.3092 0.70998 15.2227 0.70998C15.1361 0.70998 15.0495 0.70998 14.963 0.70998C14.8765 0.70998 14.7899 0.70998 14.7034 0.70998C14.6169 0.70998 14.5304 0.70998 14.444 0.70998C14.3575 0.70998 14.2711 0.70998 14.1846 0.70998C14.0982 0.70998 14.0118 0.70998 13.9254 0.70998C13.839 0.70998 13.7527 0.70998 13.6663 0.70998C13.58 0.70998 13.4936 0.70998 13.4073 0.70998C13.321 0.70998 13.2347 0.70998 13.1485 0.70998C13.0622 0.70998 12.9759 0.70998 12.8897 0.70998C12.8035 0.70998 12.7173 0.70998 12.6311 0.70998C12.5449 0.70998 12.4587 0.70998 12.3726 0.70998C12.2864 0.70998 12.2003 0.70998 12.1142 0.70998C12.0281 0.70998 11.942 0.70998 11.8559 0.70998C11.7699 0.70998 11.6838 0.70998 11.5978 0.70998C11.5118 0.70998 11.4258 0.70998 11.3398 0.70998C11.2538 0.70998 11.1678 0.70998 11.0819 0.70998C10.9959 0.70998 10.91 0.70998 10.8241 0.70998C10.7382 0.70998 10.6523 0.70998 10.5665 0.70998C10.4806 0.70998 10.3948 0.70998 10.3089 0.70998C10.2231 0.70998 10.1373 0.70998 10.0515 0.70998C9.96577 0.70998 9.88001 0.70998 9.79428 0.70998C9.70855 0.70998 9.62284 0.70998 9.53714 0.70998C9.45145 0.70998 9.36579 0.70998 9.28014 0.70998C9.19449 0.70998 9.10887 0.70998 9.02326 0.70998C8.93766 0.70998 8.85208 0.70998 8.76652 0.70998C8.68096 0.70998 8.59542 0.70998 8.5099 0.70998C8.42439 0.70998 8.33889 0.70998 8.25342 0.70998C8.16795 0.70998 8.0825 0.70998 7.99707 0.70998C7.91164 0.70998 7.82624 0.70998 7.74086 0.70998C7.65548 0.70998 7.57011 0.70998 7.48478 0.70998C7.39944 0.70998 7.31413 0.70998 7.22883 0.70998C7.14354 0.70998 7.05827 0.70998 6.97302 0.70998C6.88778 0.70998 6.80255 0.70998 6.71735 0.70998C6.63215 0.70998 6.54697 0.70998 6.46181 0.70998C6.37666 0.70998 6.29153 0.70998 6.20642 0.70998C6.12131 0.70998 6.03622 0.70998 5.95116 0.70998C5.8661 0.70998 5.78106 0.70998 5.69604 0.70998C5.61103 0.70998 5.52603 0.70998 5.44106 0.70998C5.35609 0.70998 5.27115 0.70998 5.18623 0.70998C5.10131 0.70998 5.01641 0.70998 4.93153 0.70998C4.84666 0.70998 4.76181 0.70998 4.67698 0.70998C4.59216 0.70998 4.50735 0.70998 4.42257 0.70998C4.3378 0.70998 4.25304 0.70998 4.16831 0.70998C4.08358 0.70998 3.99887 0.70998 3.91419 0.70998C3.82951 0.70998 3.74485 0.70998 3.66021 0.70998C3.57558 0.70998 3.49097 0.70998 3.40639 0.70998C3.3218 0.70998 3.23724 0.70998 3.15271 0.70998C3.06817 0.70998 2.98366 0.70998 2.89917 0.70998C2.81469 0.70998 2.73023 0.70998 2.64579 0.70998C2.56136 0.70998 2.47694 0.70998 2.39256 0.70998C2.30817 0.70998 2.22381 0.70998 2.13947 0.70998C2.05514 0.70998 1.97083 0.70998 1.88654 0.70998C1.80225 0.70998 1.71799 0.70998 1.63376 0.70998C1.54952 0.70998 1.46531 0.70998 1.38113 0.70998C1.29694 0.70998 1.21278 0.70998 1.12865 0.70998C1.04452 0.70998 0.960411 0.70998 0.876329 0.70998C0.792248 0.70998 0.708191 0.70998 0.624161 0.70998C0.540131 0.70998 0.456127 0.70998 0.372149 0.70998C0.28817 0.70998 0.204218 0.70998 0.120291 0.70998C0.0363655 0.70998 -0.0475349 0.70998 -0.131409 0.70998C-0.215282 0.70998 -0.299129 0.70998 -0.38295 0.70998C-0.466772 0.70998 -0.550566 0.70998 -0.634335 0.70998C-0.718102 0.70998 -0.801844 0.70998 -0.885559 0.70998C-0.969275 0.70998 -1.05296 0.70998 -1.13662 0.70998C-1.22029 0.70998 -1.30392 0.70998 -1.38753 0.70998C-1.47114 0.70998 -1.55472 0.70998 -1.63827 0.70998C-1.72182 0.70998 -1.80535 0.70998 -1.88885 0.70998C-1.97235 0.70998 -2.05582 0.70998 -2.13927 0.70998C-2.22272 0.70998 -2.30614 0.70998 -2.38953 0.70998C-2.47292 0.70998 -2.55628 0.70998 -2.63962 0.70998C-2.72295 0.70998 -2.80626 0.70998 -2.88954 0.70998C-2.97282 0.70998 -3.05608 0.70998 -3.1393 0.70998C-3.22253 0.70998 -3.30573 0.70998 -3.3889 0.70998C-3.47206 0.70998 -3.55521 0.70998 -3.63832 0.70998C-3.72144 0.70998 -3.80452 0.70998 -3.88758 0.70998C-3.97064 0.70998 -4.05367 0.70998 -4.13667 0.70998C-4.21967 0.70998 -4.30264 0.70998 -4.38559 0.70998C-4.46853 0.70998 -4.55145 0.70998 -4.63434 0.70998C-4.71723 0.70998 -4.80009 0.70998 -4.88292 0.70998C-4.96575 0.70998 -5.04855 0.70998 -5.13132 0.70998C-5.2141 0.70998 -5.29684 0.70998 -5.37956 0.70998C-5.46227 0.70998 -5.54496 0.70998 -5.62762 0.70998C-5.71028 0.70998 -5.79291 0.70998 -5.87551 0.70998C-5.95811 0.70998 -6.04068 0.70998 -6.12322 0.70998C-6.20576 0.70998 -6.28827 0.70998 -6.37076 0.70998C-6.45324 0.70998 -6.53569 0.70998 -6.61812 0.70998C-6.70054 0.70998 -6.78294 0.70998 -6.8653 0.70998C-6.94767 0.70998 -7.03 0.70998 -7.11231 0.70998C-7.19461 0.70998 -7.27689 0.70998 -7.35914 0.70998C-7.44138 0.70998 -7.5236 0.70998 -7.60579 0.70998C-7.68797 0.70998 -7.77013 0.70998 -7.85225 0.70998C-7.93438 0.70998 -8.01648 0.70998 -8.09854 0.70998C-8.18061 0.70998 -8.26265 0.70998 -8.34465 0.70998C-8.42666 0.70998 -8.50863 0.70998 -8.59058 0.70998C-8.67252 0.70998 -8.75443 0.70998 -8.83632 0.70998C-8.9182 0.70998 -9.00006 0.70998 -9.08188 0.70998C-9.1637 0.70998 -9.24549 0.70998 -9.32725 0.70998C-9.40901 0.70998 -9.49074 0.70998 -9.57244 0.70998C-9.65414 0.70998 -9.73581 0.70998 -9.81744 0.70998C-9.89908 0.70998 -9.98069 0.70998 -10.0623 0.70998C-10.1438 0.70998 -10.2254 0.70998 -10.3069 0.70998C-10.3884 0.70998 -10.4699 0.70998 -10.5513 0.70998C-10.6328 0.70998 -10.7142 0.70998 -10.7956 0.70998C-10.877 0.70998 -10.9583 0.70998 -11.0396 0.70998C-11.121 0.70998 -11.2023 0.70998 -11.2835 0.70998C-11.3648 0.70998 -11.446 0.70998 -11.5272 0.70998C-11.6084 0.70998 -11.6896 0.70998 -11.7707 0.70998C-11.8518 0.70998 -11.9329 0.70998 -12.014 0.70998C-12.0951 0.70998 -12.1761 0.70998 -12.2571 0.70998C-12.3381 0.70998 -12.4191 0.70998 -12.5 0.70998V20.71C-12.4191 20.71 -12.3381 20.71 -12.2571 20.71C-12.1761 20.71 -12.0951 20.71 -12.014 20.71C-11.9329 20.71 -11.8518 20.71 -11.7707 20.71C-11.6896 20.71 -11.6084 20.71 -11.5272 20.71C-11.446 20.71 -11.3648 20.71 -11.2835 20.71C-11.2023 20.71 -11.121 20.71 -11.0396 20.71C-10.9583 20.71 -10.877 20.71 -10.7956 20.71C-10.7142 20.71 -10.6328 20.71 -10.5513 20.71C-10.4699 20.71 -10.3884 20.71 -10.3069 20.71C-10.2254 20.71 -10.1438 20.71 -10.0623 20.71C-9.98069 20.71 -9.89908 20.71 -9.81744 20.71C-9.73581 20.71 -9.65414 20.71 -9.57244 20.71C-9.49074 20.71 -9.40901 20.71 -9.32725 20.71C-9.24549 20.71 -9.1637 20.71 -9.08188 20.71C-9.00006 20.71 -8.9182 20.71 -8.83632 20.71C-8.75443 20.71 -8.67252 20.71 -8.59058 20.71C-8.50863 20.71 -8.42666 20.71 -8.34465 20.71C-8.26265 20.71 -8.18061 20.71 -8.09854 20.71C-8.01648 20.71 -7.93438 20.71 -7.85225 20.71C-7.77013 20.71 -7.68797 20.71 -7.60579 20.71C-7.5236 20.71 -7.44138 20.71 -7.35914 20.71C-7.27689 20.71 -7.19461 20.71 -7.11231 20.71C-7.03 20.71 -6.94767 20.71 -6.8653 20.71C-6.78294 20.71 -6.70054 20.71 -6.61812 20.71C-6.53569 20.71 -6.45324 20.71 -6.37076 20.71C-6.28827 20.71 -6.20576 20.71 -6.12322 20.71C-6.04068 20.71 -5.95811 20.71 -5.87551 20.71C-5.79291 20.71 -5.71028 20.71 -5.62762 20.71C-5.54496 20.71 -5.46227 20.71 -5.37956 20.71C-5.29684 20.71 -5.2141 20.71 -5.13132 20.71C-5.04855 20.71 -4.96575 20.71 -4.88292 20.71C-4.80009 20.71 -4.71723 20.71 -4.63434 20.71C-4.55145 20.71 -4.46853 20.71 -4.38559 20.71C-4.30264 20.71 -4.21967 20.71 -4.13667 20.71C-4.05367 20.71 -3.97064 20.71 -3.88758 20.71C-3.80452 20.71 -3.72144 20.71 -3.63832 20.71C-3.55521 20.71 -3.47206 20.71 -3.3889 20.71C-3.30573 20.71 -3.22253 20.71 -3.1393 20.71C-3.05608 20.71 -2.97282 20.71 -2.88954 20.71C-2.80626 20.71 -2.72295 20.71 -2.63962 20.71C-2.55628 20.71 -2.47292 20.71 -2.38953 20.71C-2.30614 20.71 -2.22272 20.71 -2.13927 20.71C-2.05582 20.71 -1.97235 20.71 -1.88885 20.71C-1.80535 20.71 -1.72182 20.71 -1.63827 20.71C-1.55472 20.71 -1.47114 20.71 -1.38753 20.71C-1.30392 20.71 -1.22029 20.71 -1.13662 20.71C-1.05296 20.71 -0.969275 20.71 -0.885559 20.71C-0.801844 20.71 -0.718102 20.71 -0.634335 20.71C-0.550566 20.71 -0.466772 20.71 -0.38295 20.71C-0.299129 20.71 -0.215282 20.71 -0.131409 20.71C-0.0475349 20.71 0.0363655 20.71 0.120291 20.71C0.204218 20.71 0.28817 20.71 0.372149 20.71C0.456127 20.71 0.540131 20.71 0.624161 20.71C0.708191 20.71 0.792248 20.71 0.876329 20.71C0.960411 20.71 1.04452 20.71 1.12865 20.71C1.21278 20.71 1.29694 20.71 1.38113 20.71C1.46531 20.71 1.54952 20.71 1.63376 20.71C1.71799 20.71 1.80225 20.71 1.88654 20.71C1.97083 20.71 2.05514 20.71 2.13947 20.71C2.22381 20.71 2.30817 20.71 2.39256 20.71C2.47694 20.71 2.56136 20.71 2.64579 20.71C2.73023 20.71 2.81469 20.71 2.89917 20.71C2.98366 20.71 3.06817 20.71 3.15271 20.71C3.23724 20.71 3.3218 20.71 3.40639 20.71C3.49097 20.71 3.57558 20.71 3.66021 20.71C3.74485 20.71 3.82951 20.71 3.91419 20.71C3.99887 20.71 4.08358 20.71 4.16831 20.71C4.25304 20.71 4.3378 20.71 4.42257 20.71C4.50735 20.71 4.59216 20.71 4.67698 20.71C4.76181 20.71 4.84666 20.71 4.93153 20.71C5.01641 20.71 5.10131 20.71 5.18623 20.71C5.27115 20.71 5.35609 20.71 5.44106 20.71C5.52603 20.71 5.61103 20.71 5.69604 20.71C5.78106 20.71 5.8661 20.71 5.95116 20.71C6.03622 20.71 6.12131 20.71 6.20642 20.71C6.29153 20.71 6.37666 20.71 6.46181 20.71C6.54697 20.71 6.63215 20.71 6.71735 20.71C6.80255 20.71 6.88778 20.71 6.97302 20.71C7.05827 20.71 7.14354 20.71 7.22883 20.71C7.31413 20.71 7.39944 20.71 7.48478 20.71C7.57011 20.71 7.65548 20.71 7.74086 20.71C7.82624 20.71 7.91164 20.71 7.99707 20.71C8.0825 20.71 8.16795 20.71 8.25342 20.71C8.33889 20.71 8.42439 20.71 8.5099 20.71C8.59542 20.71 8.68096 20.71 8.76652 20.71C8.85208 20.71 8.93766 20.71 9.02326 20.71C9.10887 20.71 9.19449 20.71 9.28014 20.71C9.36579 20.71 9.45145 20.71 9.53714 20.71C9.62284 20.71 9.70855 20.71 9.79428 20.71C9.88001 20.71 9.96577 20.71 10.0515 20.71C10.1373 20.71 10.2231 20.71 10.3089 20.71C10.3948 20.71 10.4806 20.71 10.5665 20.71C10.6523 20.71 10.7382 20.71 10.8241 20.71C10.91 20.71 10.9959 20.71 11.0819 20.71C11.1678 20.71 11.2538 20.71 11.3398 20.71C11.4258 20.71 11.5118 20.71 11.5978 20.71C11.6838 20.71 11.7699 20.71 11.8559 20.71C11.942 20.71 12.0281 20.71 12.1142 20.71C12.2003 20.71 12.2864 20.71 12.3726 20.71C12.4587 20.71 12.5449 20.71 12.6311 20.71C12.7173 20.71 12.8035 20.71 12.8897 20.71C12.9759 20.71 13.0622 20.71 13.1485 20.71C13.2347 20.71 13.321 20.71 13.4073 20.71C13.4936 20.71 13.58 20.71 13.6663 20.71C13.7527 20.71 13.839 20.71 13.9254 20.71C14.0118 20.71 14.0982 20.71 14.1846 20.71C14.2711 20.71 14.3575 20.71 14.444 20.71C14.5304 20.71 14.6169 20.71 14.7034 20.71C14.7899 20.71 14.8765 20.71 14.963 20.71C15.0495 20.71 15.1361 20.71 15.2227 20.71C15.3092 20.71 15.3958 20.71 15.4825 20.71C15.5691 20.71 15.6557 20.71 15.7424 20.71C15.829 20.71 15.9157 20.71 16.0024 20.71C16.0891 20.71 16.1758 20.71 16.2625 20.71C16.3492 20.71 16.436 20.71 16.5227 20.71C16.6095 20.71 16.6963 20.71 16.7831 20.71C16.8699 20.71 16.9567 20.71 17.0435 20.71C17.1304 20.71 17.2172 20.71 17.3041 20.71C17.391 20.71 17.4779 20.71 17.5648 20.71C17.6517 20.71 17.7386 20.71 17.8255 20.71C17.9125 20.71 17.9994 20.71 18.0864 20.71C18.1734 20.71 18.2604 20.71 18.3474 20.71C18.4344 20.71 18.5215 20.71 18.6085 20.71C18.6955 20.71 18.7826 20.71 18.8697 20.71C18.9568 20.71 19.0439 20.71 19.131 20.71C19.2181 20.71 19.3052 20.71 19.3924 20.71C19.4795 20.71 19.5667 20.71 19.6539 20.71C19.7411 20.71 19.8283 20.71 19.9155 20.71C20.0027 20.71 20.0899 20.71 20.1772 20.71C20.2644 20.71 20.3517 20.71 20.439 20.71C20.5262 20.71 20.6135 20.71 20.7009 20.71C20.7882 20.71 20.8755 20.71 20.9628 20.71C21.0502 20.71 21.1376 20.71 21.2249 20.71C21.3123 20.71 21.3997 20.71 21.4871 20.71C21.5745 20.71 21.6619 20.71 21.7494 20.71C21.8368 20.71 21.9243 20.71 22.0118 20.71C22.0992 20.71 22.1867 20.71 22.2742 20.71C22.3617 20.71 22.4493 20.71 22.5368 20.71C22.6243 20.71 22.7119 20.71 22.7994 20.71C22.887 20.71 22.9746 20.71 23.0622 20.71C23.1498 20.71 23.2374 20.71 23.325 20.71C23.4126 20.71 23.5003 20.71 23.5879 20.71C23.6756 20.71 23.7633 20.71 23.8509 20.71C23.9386 20.71 24.0263 20.71 24.114 20.71C24.2018 20.71 24.2895 20.71 24.3772 20.71C24.465 20.71 24.5527 20.71 24.6405 20.71C24.7283 20.71 24.8161 20.71 24.9039 20.71C24.9917 20.71 25.0795 20.71 25.1673 20.71C25.2551 20.71 25.343 20.71 25.4308 20.71C25.5187 20.71 25.6066 20.71 25.6945 20.71C25.7823 20.71 25.8702 20.71 25.9582 20.71C26.0461 20.71 26.134 20.71 26.2219 20.71C26.3099 20.71 26.3978 20.71 26.4858 20.71C26.5738 20.71 26.6617 20.71 26.7497 20.71C26.8377 20.71 26.9257 20.71 27.0138 20.71C27.1018 20.71 27.1898 20.71 27.2779 20.71C27.3659 20.71 27.454 20.71 27.542 20.71C27.6301 20.71 27.7182 20.71 27.8063 20.71C27.8944 20.71 27.9825 20.71 28.0706 20.71C28.1588 20.71 28.2469 20.71 28.335 20.71C28.4232 20.71 28.5114 20.71 28.5995 20.71C28.6877 20.71 28.7759 20.71 28.8641 20.71C28.9523 20.71 29.0405 20.71 29.1287 20.71C29.217 20.71 29.3052 20.71 29.3934 20.71C29.4817 20.71 29.57 20.71 29.6582 20.71C29.7465 20.71 29.8348 20.71 29.9231 20.71C30.0114 20.71 30.0997 20.71 30.188 20.71C30.2763 20.71 30.3647 20.71 30.453 20.71C30.5414 20.71 30.6297 20.71 30.7181 20.71C30.8064 20.71 30.8948 20.71 30.9832 20.71C31.0716 20.71 31.16 20.71 31.2484 20.71C31.3368 20.71 31.4252 20.71 31.5137 20.71C31.6021 20.71 31.6906 20.71 31.779 20.71C31.8675 20.71 31.9559 20.71 32.0444 20.71C32.1329 20.71 32.2214 20.71 32.3099 20.71C32.3984 20.71 32.4869 20.71 32.5754 20.71C32.6639 20.71 32.7525 20.71 32.841 20.71C32.9296 20.71 33.0181 20.71 33.1067 20.71C33.1953 20.71 33.2838 20.71 33.3724 20.71C33.461 20.71 33.5496 20.71 33.6382 20.71C33.7268 20.71 33.8154 20.71 33.904 20.71C33.9927 20.71 34.0813 20.71 34.1699 20.71C34.2586 20.71 34.3472 20.71 34.4359 20.71C34.5246 20.71 34.6132 20.71 34.7019 20.71C34.7906 20.71 34.8793 20.71 34.968 20.71C35.0567 20.71 35.1454 20.71 35.2341 20.71C35.3229 20.71 35.4116 20.71 35.5003 20.71C35.5891 20.71 35.6778 20.71 35.7666 20.71C35.8553 20.71 35.9441 20.71 36.0329 20.71C36.1217 20.71 36.2105 20.71 36.2993 20.71C36.388 20.71 36.4769 20.71 36.5657 20.71C36.6545 20.71 36.7433 20.71 36.8321 20.71C36.921 20.71 37.0098 20.71 37.0986 20.71C37.1875 20.71 37.2764 20.71 37.3652 20.71C37.4541 20.71 37.543 20.71 37.6318 20.71C37.7207 20.71 37.8096 20.71 37.8985 20.71C37.9874 20.71 38.0763 20.71 38.1652 20.71C38.2541 20.71 38.3431 20.71 38.432 20.71C38.5209 20.71 38.6098 20.71 38.6988 20.71C38.7877 20.71 38.8767 20.71 38.9657 20.71C39.0546 20.71 39.1436 20.71 39.2326 20.71C39.3215 20.71 39.4105 20.71 39.4995 20.71C39.5885 20.71 39.6775 20.71 39.7665 20.71C39.8555 20.71 39.9445 20.71 40.0335 20.71C40.1226 20.71 40.2116 20.71 40.3006 20.71C40.3897 20.71 40.4787 20.71 40.5677 20.71C40.6568 20.71 40.7458 20.71 40.8349 20.71C40.924 20.71 41.013 20.71 41.1021 20.71C41.1912 20.71 41.2803 20.71 41.3694 20.71C41.4585 20.71 41.5475 20.71 41.6366 20.71C41.7257 20.71 41.8149 20.71 41.904 20.71C41.9931 20.71 42.0822 20.71 42.1713 20.71C42.2605 20.71 42.3496 20.71 42.4387 20.71C42.5279 20.71 42.617 20.71 42.7062 20.71C42.7953 20.71 42.8845 20.71 42.9736 20.71C43.0628 20.71 43.152 20.71 43.2411 20.71C43.3303 20.71 43.4195 20.71 43.5087 20.71C43.5979 20.71 43.687 20.71 43.7762 20.71C43.8654 20.71 43.9546 20.71 44.0438 20.71C44.1331 20.71 44.2223 20.71 44.3115 20.71C44.4007 20.71 44.4899 20.71 44.5791 20.71C44.6684 20.71 44.7576 20.71 44.8468 20.71C44.9361 20.71 45.0253 20.71 45.1146 20.71C45.2038 20.71 45.2931 20.71 45.3823 20.71C45.4716 20.71 45.5608 20.71 45.6501 20.71C45.7394 20.71 45.8287 20.71 45.9179 20.71C46.0072 20.71 46.0965 20.71 46.1858 20.71C46.275 20.71 46.3643 20.71 46.4536 20.71C46.5429 20.71 46.6322 20.71 46.7215 20.71C46.8108 20.71 46.9001 20.71 46.9894 20.71C47.0787 20.71 47.168 20.71 47.2574 20.71C47.3467 20.71 47.436 20.71 47.5253 20.71C47.6146 20.71 47.704 20.71 47.7933 20.71C47.8826 20.71 47.972 20.71 48.0613 20.71C48.1506 20.71 48.24 20.71 48.3293 20.71C48.4187 20.71 48.508 20.71 48.5974 20.71C48.6867 20.71 48.7761 20.71 48.8654 20.71C48.9548 20.71 49.0442 20.71 49.1335 20.71C49.2229 20.71 49.3122 20.71 49.4016 20.71C49.491 20.71 49.5804 20.71 49.6697 20.71C49.7591 20.71 49.8485 20.71 49.9379 20.71C50.0272 20.71 50.1166 20.71 50.206 20.71C50.2954 20.71 50.3848 20.71 50.4742 20.71C50.5636 20.71 50.6529 20.71 50.7423 20.71C50.8317 20.71 50.9211 20.71 51.0105 20.71C51.0999 20.71 51.1893 20.71 51.2787 20.71C51.3681 20.71 51.4575 20.71 51.5469 20.71C51.6363 20.71 51.7258 20.71 51.8152 20.71C51.9046 20.71 51.994 20.71 52.0834 20.71C52.1728 20.71 52.2622 20.71 52.3516 20.71C52.4411 20.71 52.5305 20.71 52.6199 20.71C52.7093 20.71 52.7987 20.71 52.8882 20.71C52.9776 20.71 53.067 20.71 53.1564 20.71C53.2458 20.71 53.3353 20.71 53.4247 20.71C53.5141 20.71 53.6035 20.71 53.693 20.71C53.7824 20.71 53.8718 20.71 53.9613 20.71C54.0507 20.71 54.1401 20.71 54.2295 20.71C54.319 20.71 54.4084 20.71 54.4978 20.71C54.5873 20.71 54.6767 20.71 54.7661 20.71C54.8556 20.71 54.945 20.71 55.0344 20.71C55.1239 20.71 55.2133 20.71 55.3027 20.71C55.3922 20.71 55.4816 20.71 55.571 20.71C55.6605 20.71 55.7499 20.71 55.8393 20.71C55.9287 20.71 56.0182 20.71 56.1076 20.71C56.197 20.71 56.2865 20.71 56.3759 20.71C56.4653 20.71 56.5548 20.71 56.6442 20.71C56.7336 20.71 56.8231 20.71 56.9125 20.71C57.0019 20.71 57.0914 20.71 57.1808 20.71C57.2702 20.71 57.3596 20.71 57.4491 20.71C57.5385 20.71 57.6279 20.71 57.7173 20.71C57.8068 20.71 57.8962 20.71 57.9856 20.71C58.075 20.71 58.1644 20.71 58.2539 20.71C58.3433 20.71 58.4327 20.71 58.5221 20.71C58.6115 20.71 58.701 20.71 58.7904 20.71C58.8798 20.71 58.9692 20.71 59.0586 20.71C59.148 20.71 59.2374 20.71 59.3268 20.71C59.4162 20.71 59.5056 20.71 59.595 20.71C59.6844 20.71 59.7739 20.71 59.8633 20.71C59.9527 20.71 60.0421 20.71 60.1314 20.71C60.2208 20.71 60.3102 20.71 60.3996 20.71C60.489 20.71 60.5784 20.71 60.6678 20.71C60.7572 20.71 60.8466 20.71 60.9359 20.71C61.0253 20.71 61.1147 20.71 61.2041 20.71C61.2935 20.71 61.3828 20.71 61.4722 20.71C61.5616 20.71 61.6509 20.71 61.7403 20.71C61.8297 20.71 61.919 20.71 62.0084 20.71C62.0978 20.71 62.1871 20.71 62.2765 20.71C62.3658 20.71 62.4552 20.71 62.5445 20.71C62.6339 20.71 62.7232 20.71 62.8125 20.71C62.9019 20.71 62.9912 20.71 63.0806 20.71C63.1699 20.71 63.2592 20.71 63.3485 20.71C63.4379 20.71 63.5272 20.71 63.6165 20.71C63.7058 20.71 63.7951 20.71 63.8845 20.71C63.9738 20.71 64.0631 20.71 64.1524 20.71C64.2417 20.71 64.331 20.71 64.4203 20.71C64.5096 20.71 64.5989 20.71 64.6881 20.71C64.7774 20.71 64.8667 20.71 64.956 20.71C65.0453 20.71 65.1345 20.71 65.2238 20.71C65.3131 20.71 65.4024 20.71 65.4916 20.71C65.5809 20.71 65.6701 20.71 65.7594 20.71C65.8486 20.71 65.9379 20.71 66.0271 20.71C66.1164 20.71 66.2056 20.71 66.2948 20.71C66.3841 20.71 66.4733 20.71 66.5625 20.71C66.6517 20.71 66.7409 20.71 66.8301 20.71C66.9194 20.71 67.0086 20.71 67.0978 20.71C67.187 20.71 67.2762 20.71 67.3653 20.71C67.4545 20.71 67.5437 20.71 67.6329 20.71C67.7221 20.71 67.8112 20.71 67.9004 20.71C67.9896 20.71 68.0787 20.71 68.1679 20.71C68.2571 20.71 68.3462 20.71 68.4353 20.71C68.5245 20.71 68.6136 20.71 68.7028 20.71C68.7919 20.71 68.881 20.71 68.9701 20.71C69.0592 20.71 69.1484 20.71 69.2375 20.71C69.3266 20.71 69.4157 20.71 69.5048 20.71C69.5939 20.71 69.683 20.71 69.772 20.71C69.8611 20.71 69.9502 20.71 70.0393 20.71C70.1283 20.71 70.2174 20.71 70.3064 20.71C70.3955 20.71 70.4845 20.71 70.5736 20.71C70.6626 20.71 70.7516 20.71 70.8407 20.71C70.9297 20.71 71.0187 20.71 71.1077 20.71C71.1967 20.71 71.2857 20.71 71.3747 20.71C71.4637 20.71 71.5527 20.71 71.6417 20.71C71.7307 20.71 71.8197 20.71 71.9086 20.71C71.9976 20.71 72.0865 20.71 72.1755 20.71C72.2645 20.71 72.3534 20.71 72.4423 20.71C72.5313 20.71 72.6202 20.71 72.7091 20.71C72.798 20.71 72.8869 20.71 72.9758 20.71C73.0648 20.71 73.1536 20.71 73.2425 20.71C73.3314 20.71 73.4203 20.71 73.5092 20.71C73.598 20.71 73.6869 20.71 73.7758 20.71C73.8646 20.71 73.9535 20.71 74.0423 20.71C74.1311 20.71 74.22 20.71 74.3088 20.71C74.3976 20.71 74.4864 20.71 74.5752 20.71C74.664 20.71 74.7528 20.71 74.8416 20.71C74.9304 20.71 75.0191 20.71 75.1079 20.71C75.1967 20.71 75.2854 20.71 75.3742 20.71C75.4629 20.71 75.5517 20.71 75.6404 20.71C75.7291 20.71 75.8178 20.71 75.9066 20.71C75.9953 20.71 76.084 20.71 76.1727 20.71C76.2614 20.71 76.35 20.71 76.4387 20.71C76.5274 20.71 76.616 20.71 76.7047 20.71C76.7933 20.71 76.882 20.71 76.9706 20.71C77.0592 20.71 77.1479 20.71 77.2365 20.71C77.3251 20.71 77.4137 20.71 77.5023 20.71C77.5909 20.71 77.6795 20.71 77.768 20.71C77.8566 20.71 77.9452 20.71 78.0337 20.71C78.1223 20.71 78.2108 20.71 78.2993 20.71C78.3879 20.71 78.4764 20.71 78.5649 20.71C78.6534 20.71 78.7419 20.71 78.8304 20.71C78.9189 20.71 79.0074 20.71 79.0958 20.71C79.1843 20.71 79.2727 20.71 79.3612 20.71C79.4496 20.71 79.5381 20.71 79.6265 20.71C79.7149 20.71 79.8033 20.71 79.8917 20.71C79.9801 20.71 80.0685 20.71 80.1569 20.71C80.2452 20.71 80.3336 20.71 80.422 20.71C80.5103 20.71 80.5987 20.71 80.687 20.71C80.7753 20.71 80.8636 20.71 80.9519 20.71C81.0402 20.71 81.1285 20.71 81.2168 20.71C81.3051 20.71 81.3934 20.71 81.4816 20.71C81.5699 20.71 81.6581 20.71 81.7464 20.71C81.8346 20.71 81.9228 20.71 82.011 20.71C82.0992 20.71 82.1874 20.71 82.2756 20.71C82.3638 20.71 82.452 20.71 82.5401 20.71C82.6283 20.71 82.7164 20.71 82.8046 20.71C82.8927 20.71 82.9808 20.71 83.0689 20.71C83.1571 20.71 83.2452 20.71 83.3332 20.71C83.4213 20.71 83.5094 20.71 83.5974 20.71C83.6855 20.71 83.7735 20.71 83.8616 20.71C83.9496 20.71 84.0376 20.71 84.1256 20.71C84.2136 20.71 84.3016 20.71 84.3896 20.71C84.4776 20.71 84.5655 20.71 84.6535 20.71C84.7414 20.71 84.8294 20.71 84.9173 20.71C85.0052 20.71 85.0931 20.71 85.181 20.71C85.2689 20.71 85.3568 20.71 85.4447 20.71C85.5325 20.71 85.6204 20.71 85.7082 20.71C85.7961 20.71 85.8839 20.71 85.9717 20.71C86.0595 20.71 86.1473 20.71 86.2351 20.71C86.3229 20.71 86.4107 20.71 86.4984 20.71C86.5862 20.71 86.6739 20.71 86.7616 20.71C86.8494 20.71 86.9371 20.71 87.0248 20.71C87.1125 20.71 87.2001 20.71 87.2878 20.71C87.3755 20.71 87.4631 20.71 87.5508 20.71C87.6384 20.71 87.726 20.71 87.8136 20.71C87.9012 20.71 87.9888 20.71 88.0764 20.71C88.164 20.71 88.2515 20.71 88.3391 20.71C88.4266 20.71 88.5142 20.71 88.6017 20.71C88.6892 20.71 88.7767 20.71 88.8642 20.71C88.9517 20.71 89.0391 20.71 89.1266 20.71C89.2141 20.71 89.3015 20.71 89.3889 20.71C89.4763 20.71 89.5637 20.71 89.6511 20.71C89.7385 20.71 89.8259 20.71 89.9133 20.71C90.0006 20.71 90.088 20.71 90.1753 20.71C90.2626 20.71 90.3499 20.71 90.4372 20.71C90.5245 20.71 90.6118 20.71 90.699 20.71C90.7863 20.71 90.8736 20.71 90.9608 20.71C91.048 20.71 91.1352 20.71 91.2224 20.71C91.3096 20.71 91.3968 20.71 91.4839 20.71C91.5711 20.71 91.6583 20.71 91.7454 20.71C91.8325 20.71 91.9196 20.71 92.0067 20.71C92.0938 20.71 92.1809 20.71 92.2679 20.71C92.355 20.71 92.442 20.71 92.5291 20.71C92.6161 20.71 92.7031 20.71 92.7901 20.71C92.8771 20.71 92.9641 20.71 93.051 20.71C93.138 20.71 93.2249 20.71 93.3118 20.71C93.3988 20.71 93.4856 20.71 93.5725 20.71C93.6594 20.71 93.7463 20.71 93.8331 20.71C93.92 20.71 94.0068 20.71 94.0936 20.71C94.1804 20.71 94.2672 20.71 94.354 20.71C94.4408 20.71 94.5276 20.71 94.6143 20.71C94.701 20.71 94.7878 20.71 94.8745 20.71C94.9612 20.71 95.0479 20.71 95.1345 20.71C95.2212 20.71 95.3078 20.71 95.3945 20.71C95.4811 20.71 95.5677 20.71 95.6543 20.71C95.7409 20.71 95.8275 20.71 95.914 20.71C96.0006 20.71 96.0871 20.71 96.1736 20.71C96.2601 20.71 96.3466 20.71 96.4331 20.71C96.5196 20.71 96.6061 20.71 96.6925 20.71C96.7789 20.71 96.8654 20.71 96.9518 20.71C97.0382 20.71 97.1245 20.71 97.2109 20.71C97.2973 20.71 97.3836 20.71 97.4699 20.71C97.5563 20.71 97.6426 20.71 97.7289 20.71C97.8151 20.71 97.9014 20.71 97.9876 20.71C98.0739 20.71 98.1601 20.71 98.2463 20.71C98.3325 20.71 98.4187 20.71 98.5049 20.71C98.591 20.71 98.6772 20.71 98.7633 20.71C98.8494 20.71 98.9355 20.71 99.0216 20.71C99.1077 20.71 99.1938 20.71 99.2798 20.71C99.3658 20.71 99.4519 20.71 99.5379 20.71C99.6239 20.71 99.7099 20.71 99.7958 20.71C99.8818 20.71 99.9677 20.71 100.054 20.71C100.14 20.71 100.225 20.71 100.311 20.71C100.397 20.71 100.483 20.71 100.569 20.71C100.655 20.71 100.741 20.71 100.826 20.71C100.912 20.71 100.998 20.71 101.084 20.71C101.169 20.71 101.255 20.71 101.341 20.71C101.427 20.71 101.512 20.71 101.598 20.71C101.684 20.71 101.769 20.71 101.855 20.71C101.94 20.71 102.026 20.71 102.112 20.71C102.197 20.71 102.283 20.71 102.368 20.71C102.454 20.71 102.539 20.71 102.625 20.71C102.71 20.71 102.796 20.71 102.881 20.71C102.967 20.71 103.052 20.71 103.137 20.71C103.223 20.71 103.308 20.71 103.394 20.71C103.479 20.71 103.564 20.71 103.65 20.71C103.735 20.71 103.82 20.71 103.905 20.71C103.991 20.71 104.076 20.71 104.161 20.71C104.246 20.71 104.332 20.71 104.417 20.71C104.502 20.71 104.587 20.71 104.672 20.71C104.757 20.71 104.842 20.71 104.928 20.71C105.013 20.71 105.098 20.71 105.183 20.71C105.268 20.71 105.353 20.71 105.438 20.71C105.523 20.71 105.608 20.71 105.693 20.71C105.778 20.71 105.862 20.71 105.947 20.71C106.032 20.71 106.117 20.71 106.202 20.71C106.287 20.71 106.372 20.71 106.456 20.71C106.541 20.71 106.626 20.71 106.711 20.71C106.796 20.71 106.88 20.71 106.965 20.71C107.05 20.71 107.134 20.71 107.219 20.71C107.304 20.71 107.388 20.71 107.473 20.71C107.557 20.71 107.642 20.71 107.727 20.71C107.811 20.71 107.896 20.71 107.98 20.71C108.065 20.71 108.149 20.71 108.234 20.71C108.318 20.71 108.402 20.71 108.487 20.71C108.571 20.71 108.656 20.71 108.74 20.71C108.824 20.71 108.909 20.71 108.993 20.71C109.077 20.71 109.162 20.71 109.246 20.71C109.33 20.71 109.414 20.71 109.499 20.71C109.583 20.71 109.667 20.71 109.751 20.71C109.835 20.71 109.919 20.71 110.003 20.71C110.088 20.71 110.172 20.71 110.256 20.71C110.34 20.71 110.424 20.71 110.508 20.71C110.592 20.71 110.676 20.71 110.76 20.71C110.844 20.71 110.928 20.71 111.011 20.71C111.095 20.71 111.179 20.71 111.263 20.71C111.347 20.71 111.431 20.71 111.514 20.71C111.598 20.71 111.682 20.71 111.766 20.71C111.85 20.71 111.933 20.71 112.017 20.71C112.101 20.71 112.184 20.71 112.268 20.71C112.351 20.71 112.435 20.71 112.519 20.71C112.602 20.71 112.686 20.71 112.769 20.71C112.853 20.71 112.936 20.71 113.02 20.71C113.103 20.71 113.187 20.71 113.27 20.71C113.354 20.71 113.437 20.71 113.52 20.71C113.604 20.71 113.687 20.71 113.77 20.71C113.854 20.71 113.937 20.71 114.02 20.71C114.103 20.71 114.187 20.71 114.27 20.71C114.353 20.71 114.436 20.71 114.519 20.71C114.602 20.71 114.685 20.71 114.769 20.71C114.852 20.71 114.935 20.71 115.018 20.71C115.101 20.71 115.184 20.71 115.267 20.71C115.35 20.71 115.433 20.71 115.515 20.71C115.598 20.71 115.681 20.71 115.764 20.71C115.847 20.71 115.93 20.71 116.013 20.71C116.095 20.71 116.178 20.71 116.261 20.71C116.344 20.71 116.426 20.71 116.509 20.71C116.592 20.71 116.674 20.71 116.757 20.71C116.84 20.71 116.922 20.71 117.005 20.71C117.087 20.71 117.17 20.71 117.252 20.71C117.335 20.71 117.417 20.71 117.5 20.71C117.582 20.71 117.665 20.71 117.747 20.71C117.829 20.71 117.912 20.71 117.994 20.71C118.076 20.71 118.159 20.71 118.241 20.71C118.323 20.71 118.406 20.71 118.488 20.71C118.57 20.71 118.652 20.71 118.734 20.71C118.816 20.71 118.899 20.71 118.981 20.71C119.063 20.71 119.145 20.71 119.227 20.71C119.309 20.71 119.391 20.71 119.473 20.71C119.555 20.71 119.637 20.71 119.719 20.71C119.801 20.71 119.882 20.71 119.964 20.71C120.046 20.71 120.128 20.71 120.21 20.71C120.291 20.71 120.373 20.71 120.455 20.71C120.537 20.71 120.618 20.71 120.7 20.71V0.70998ZM-22.5 10.71V350H-2.5V10.71H-22.5ZM-12.5 360C-12.4191 360 -12.3381 360 -12.2571 360C-12.1761 360 -12.0951 360 -12.014 360C-11.9329 360 -11.8518 360 -11.7707 360C-11.6896 360 -11.6084 360 -11.5272 360C-11.446 360 -11.3648 360 -11.2835 360C-11.2023 360 -11.121 360 -11.0396 360C-10.9583 360 -10.877 360 -10.7956 360C-10.7142 360 -10.6328 360 -10.5513 360C-10.4699 360 -10.3884 360 -10.3069 360C-10.2254 360 -10.1438 360 -10.0623 360C-9.98069 360 -9.89908 360 -9.81744 360C-9.73581 360 -9.65414 360 -9.57244 360C-9.49074 360 -9.40901 360 -9.32725 360C-9.24549 360 -9.1637 360 -9.08188 360C-9.00006 360 -8.9182 360 -8.83632 360C-8.75443 360 -8.67252 360 -8.59058 360C-8.50863 360 -8.42666 360 -8.34465 360C-8.26265 360 -8.18061 360 -8.09854 360C-8.01648 360 -7.93438 360 -7.85225 360C-7.77013 360 -7.68797 360 -7.60579 360C-7.5236 360 -7.44138 360 -7.35914 360C-7.27689 360 -7.19461 360 -7.11231 360C-7.03 360 -6.94767 360 -6.8653 360C-6.78294 360 -6.70054 360 -6.61812 360C-6.53569 360 -6.45324 360 -6.37076 360C-6.28827 360 -6.20576 360 -6.12322 360C-6.04068 360 -5.95811 360 -5.87551 360C-5.79291 360 -5.71028 360 -5.62762 360C-5.54496 360 -5.46227 360 -5.37956 360C-5.29684 360 -5.2141 360 -5.13132 360C-5.04855 360 -4.96575 360 -4.88292 360C-4.80009 360 -4.71723 360 -4.63434 360C-4.55145 360 -4.46853 360 -4.38559 360C-4.30264 360 -4.21967 360 -4.13667 360C-4.05367 360 -3.97064 360 -3.88758 360C-3.80452 360 -3.72144 360 -3.63832 360C-3.55521 360 -3.47206 360 -3.3889 360C-3.30573 360 -3.22253 360 -3.1393 360C-3.05608 360 -2.97282 360 -2.88954 360C-2.80626 360 -2.72295 360 -2.63962 360C-2.55628 360 -2.47292 360 -2.38953 360C-2.30614 360 -2.22272 360 -2.13927 360C-2.05582 360 -1.97235 360 -1.88885 360C-1.80535 360 -1.72182 360 -1.63827 360C-1.55472 360 -1.47114 360 -1.38753 360C-1.30392 360 -1.22029 360 -1.13662 360C-1.05296 360 -0.969275 360 -0.885559 360C-0.801844 360 -0.718102 360 -0.634335 360C-0.550566 360 -0.466772 360 -0.38295 360C-0.299129 360 -0.215282 360 -0.131409 360C-0.0475349 360 0.0363655 360 0.120291 360C0.204218 360 0.28817 360 0.372149 360C0.456127 360 0.540131 360 0.624161 360C0.708191 360 0.792248 360 0.876329 360C0.960411 360 1.04452 360 1.12865 360C1.21278 360 1.29694 360 1.38113 360C1.46531 360 1.54952 360 1.63376 360C1.71799 360 1.80225 360 1.88654 360C1.97083 360 2.05514 360 2.13947 360C2.22381 360 2.30817 360 2.39256 360C2.47694 360 2.56136 360 2.64579 360C2.73023 360 2.81469 360 2.89917 360C2.98366 360 3.06817 360 3.15271 360C3.23724 360 3.3218 360 3.40639 360C3.49097 360 3.57558 360 3.66021 360C3.74485 360 3.82951 360 3.91419 360C3.99887 360 4.08358 360 4.16831 360C4.25304 360 4.3378 360 4.42257 360C4.50735 360 4.59216 360 4.67698 360C4.76181 360 4.84666 360 4.93153 360C5.01641 360 5.10131 360 5.18623 360C5.27115 360 5.35609 360 5.44106 360C5.52603 360 5.61103 360 5.69604 360C5.78106 360 5.8661 360 5.95116 360C6.03622 360 6.12131 360 6.20642 360C6.29153 360 6.37666 360 6.46181 360C6.54697 360 6.63215 360 6.71735 360C6.80255 360 6.88778 360 6.97302 360C7.05827 360 7.14354 360 7.22883 360C7.31413 360 7.39944 360 7.48478 360C7.57011 360 7.65548 360 7.74086 360C7.82624 360 7.91164 360 7.99707 360C8.0825 360 8.16795 360 8.25342 360C8.33889 360 8.42439 360 8.5099 360C8.59542 360 8.68096 360 8.76652 360C8.85208 360 8.93766 360 9.02326 360C9.10887 360 9.19449 360 9.28014 360C9.36579 360 9.45145 360 9.53714 360C9.62284 360 9.70855 360 9.79428 360C9.88001 360 9.96577 360 10.0515 360C10.1373 360 10.2231 360 10.3089 360C10.3948 360 10.4806 360 10.5665 360C10.6523 360 10.7382 360 10.8241 360C10.91 360 10.9959 360 11.0819 360C11.1678 360 11.2538 360 11.3398 360C11.4258 360 11.5118 360 11.5978 360C11.6838 360 11.7699 360 11.8559 360C11.942 360 12.0281 360 12.1142 360C12.2003 360 12.2864 360 12.3726 360C12.4587 360 12.5449 360 12.6311 360C12.7173 360 12.8035 360 12.8897 360C12.9759 360 13.0622 360 13.1485 360C13.2347 360 13.321 360 13.4073 360C13.4936 360 13.58 360 13.6663 360C13.7527 360 13.839 360 13.9254 360C14.0118 360 14.0982 360 14.1846 360C14.2711 360 14.3575 360 14.444 360C14.5304 360 14.6169 360 14.7034 360C14.7899 360 14.8765 360 14.963 360C15.0495 360 15.1361 360 15.2227 360C15.3092 360 15.3958 360 15.4825 360C15.5691 360 15.6557 360 15.7424 360C15.829 360 15.9157 360 16.0024 360C16.0891 360 16.1758 360 16.2625 360C16.3492 360 16.436 360 16.5227 360C16.6095 360 16.6963 360 16.7831 360C16.8699 360 16.9567 360 17.0435 360C17.1304 360 17.2172 360 17.3041 360C17.391 360 17.4779 360 17.5648 360C17.6517 360 17.7386 360 17.8255 360C17.9125 360 17.9994 360 18.0864 360C18.1734 360 18.2604 360 18.3474 360C18.4344 360 18.5215 360 18.6085 360C18.6955 360 18.7826 360 18.8697 360C18.9568 360 19.0439 360 19.131 360C19.2181 360 19.3052 360 19.3924 360C19.4795 360 19.5667 360 19.6539 360C19.7411 360 19.8283 360 19.9155 360C20.0027 360 20.0899 360 20.1772 360C20.2644 360 20.3517 360 20.439 360C20.5262 360 20.6135 360 20.7009 360C20.7882 360 20.8755 360 20.9628 360C21.0502 360 21.1376 360 21.2249 360C21.3123 360 21.3997 360 21.4871 360C21.5745 360 21.6619 360 21.7494 360C21.8368 360 21.9243 360 22.0118 360C22.0992 360 22.1867 360 22.2742 360C22.3617 360 22.4493 360 22.5368 360C22.6243 360 22.7119 360 22.7994 360C22.887 360 22.9746 360 23.0622 360C23.1498 360 23.2374 360 23.325 360C23.4126 360 23.5003 360 23.5879 360C23.6756 360 23.7633 360 23.8509 360C23.9386 360 24.0263 360 24.114 360C24.2018 360 24.2895 360 24.3772 360C24.465 360 24.5527 360 24.6405 360C24.7283 360 24.8161 360 24.9039 360C24.9917 360 25.0795 360 25.1673 360C25.2551 360 25.343 360 25.4308 360C25.5187 360 25.6066 360 25.6945 360C25.7823 360 25.8702 360 25.9582 360C26.0461 360 26.134 360 26.2219 360C26.3099 360 26.3978 360 26.4858 360C26.5738 360 26.6617 360 26.7497 360C26.8377 360 26.9257 360 27.0138 360C27.1018 360 27.1898 360 27.2779 360C27.3659 360 27.454 360 27.542 360C27.6301 360 27.7182 360 27.8063 360C27.8944 360 27.9825 360 28.0706 360C28.1588 360 28.2469 360 28.335 360C28.4232 360 28.5114 360 28.5995 360C28.6877 360 28.7759 360 28.8641 360C28.9523 360 29.0405 360 29.1287 360C29.217 360 29.3052 360 29.3934 360C29.4817 360 29.57 360 29.6582 360C29.7465 360 29.8348 360 29.9231 360C30.0114 360 30.0997 360 30.188 360C30.2763 360 30.3647 360 30.453 360C30.5414 360 30.6297 360 30.7181 360C30.8064 360 30.8948 360 30.9832 360C31.0716 360 31.16 360 31.2484 360C31.3368 360 31.4252 360 31.5137 360C31.6021 360 31.6906 360 31.779 360C31.8675 360 31.9559 360 32.0444 360C32.1329 360 32.2214 360 32.3099 360C32.3984 360 32.4869 360 32.5754 360C32.6639 360 32.7525 360 32.841 360C32.9296 360 33.0181 360 33.1067 360C33.1953 360 33.2838 360 33.3724 360C33.461 360 33.5496 360 33.6382 360C33.7268 360 33.8154 360 33.904 360C33.9927 360 34.0813 360 34.1699 360C34.2586 360 34.3472 360 34.4359 360C34.5246 360 34.6132 360 34.7019 360C34.7906 360 34.8793 360 34.968 360C35.0567 360 35.1454 360 35.2341 360C35.3229 360 35.4116 360 35.5003 360C35.5891 360 35.6778 360 35.7666 360C35.8553 360 35.9441 360 36.0329 360C36.1217 360 36.2105 360 36.2993 360C36.388 360 36.4769 360 36.5657 360C36.6545 360 36.7433 360 36.8321 360C36.921 360 37.0098 360 37.0986 360C37.1875 360 37.2764 360 37.3652 360C37.4541 360 37.543 360 37.6318 360C37.7207 360 37.8096 360 37.8985 360C37.9874 360 38.0763 360 38.1652 360C38.2541 360 38.3431 360 38.432 360C38.5209 360 38.6098 360 38.6988 360C38.7877 360 38.8767 360 38.9657 360C39.0546 360 39.1436 360 39.2326 360C39.3215 360 39.4105 360 39.4995 360C39.5885 360 39.6775 360 39.7665 360C39.8555 360 39.9445 360 40.0335 360C40.1226 360 40.2116 360 40.3006 360C40.3897 360 40.4787 360 40.5677 360C40.6568 360 40.7458 360 40.8349 360C40.924 360 41.013 360 41.1021 360C41.1912 360 41.2803 360 41.3694 360C41.4585 360 41.5475 360 41.6366 360C41.7257 360 41.8149 360 41.904 360C41.9931 360 42.0822 360 42.1713 360C42.2605 360 42.3496 360 42.4387 360C42.5279 360 42.617 360 42.7062 360C42.7953 360 42.8845 360 42.9736 360C43.0628 360 43.152 360 43.2411 360C43.3303 360 43.4195 360 43.5087 360C43.5979 360 43.687 360 43.7762 360C43.8654 360 43.9546 360 44.0438 360C44.1331 360 44.2223 360 44.3115 360C44.4007 360 44.4899 360 44.5791 360C44.6684 360 44.7576 360 44.8468 360C44.9361 360 45.0253 360 45.1146 360C45.2038 360 45.2931 360 45.3823 360C45.4716 360 45.5608 360 45.6501 360C45.7394 360 45.8287 360 45.9179 360C46.0072 360 46.0965 360 46.1858 360C46.275 360 46.3643 360 46.4536 360C46.5429 360 46.6322 360 46.7215 360C46.8108 360 46.9001 360 46.9894 360C47.0787 360 47.168 360 47.2574 360C47.3467 360 47.436 360 47.5253 360C47.6146 360 47.704 360 47.7933 360C47.8826 360 47.972 360 48.0613 360C48.1506 360 48.24 360 48.3293 360C48.4187 360 48.508 360 48.5974 360C48.6867 360 48.7761 360 48.8654 360C48.9548 360 49.0442 360 49.1335 360C49.2229 360 49.3122 360 49.4016 360C49.491 360 49.5804 360 49.6697 360C49.7591 360 49.8485 360 49.9379 360C50.0272 360 50.1166 360 50.206 360C50.2954 360 50.3848 360 50.4742 360C50.5636 360 50.6529 360 50.7423 360C50.8317 360 50.9211 360 51.0105 360C51.0999 360 51.1893 360 51.2787 360C51.3681 360 51.4575 360 51.5469 360C51.6363 360 51.7258 360 51.8152 360C51.9046 360 51.994 360 52.0834 360C52.1728 360 52.2622 360 52.3516 360C52.4411 360 52.5305 360 52.6199 360C52.7093 360 52.7987 360 52.8882 360C52.9776 360 53.067 360 53.1564 360C53.2458 360 53.3353 360 53.4247 360C53.5141 360 53.6035 360 53.693 360C53.7824 360 53.8718 360 53.9613 360C54.0507 360 54.1401 360 54.2295 360C54.319 360 54.4084 360 54.4978 360C54.5873 360 54.6767 360 54.7661 360C54.8556 360 54.945 360 55.0344 360C55.1239 360 55.2133 360 55.3027 360C55.3922 360 55.4816 360 55.571 360C55.6605 360 55.7499 360 55.8393 360C55.9287 360 56.0182 360 56.1076 360C56.197 360 56.2865 360 56.3759 360C56.4653 360 56.5548 360 56.6442 360C56.7336 360 56.8231 360 56.9125 360C57.0019 360 57.0914 360 57.1808 360C57.2702 360 57.3596 360 57.4491 360C57.5385 360 57.6279 360 57.7173 360C57.8068 360 57.8962 360 57.9856 360C58.075 360 58.1644 360 58.2539 360C58.3433 360 58.4327 360 58.5221 360C58.6115 360 58.701 360 58.7904 360C58.8798 360 58.9692 360 59.0586 360C59.148 360 59.2374 360 59.3268 360C59.4162 360 59.5056 360 59.595 360C59.6844 360 59.7739 360 59.8633 360C59.9527 360 60.0421 360 60.1314 360C60.2208 360 60.3102 360 60.3996 360C60.489 360 60.5784 360 60.6678 360C60.7572 360 60.8466 360 60.9359 360C61.0253 360 61.1147 360 61.2041 360C61.2935 360 61.3828 360 61.4722 360C61.5616 360 61.6509 360 61.7403 360C61.8297 360 61.919 360 62.0084 360C62.0978 360 62.1871 360 62.2765 360C62.3658 360 62.4552 360 62.5445 360C62.6339 360 62.7232 360 62.8125 360C62.9019 360 62.9912 360 63.0806 360C63.1699 360 63.2592 360 63.3485 360C63.4379 360 63.5272 360 63.6165 360C63.7058 360 63.7951 360 63.8845 360C63.9738 360 64.0631 360 64.1524 360C64.2417 360 64.331 360 64.4203 360C64.5096 360 64.5989 360 64.6881 360C64.7774 360 64.8667 360 64.956 360C65.0453 360 65.1345 360 65.2238 360C65.3131 360 65.4024 360 65.4916 360C65.5809 360 65.6701 360 65.7594 360C65.8486 360 65.9379 360 66.0271 360C66.1164 360 66.2056 360 66.2948 360C66.3841 360 66.4733 360 66.5625 360C66.6517 360 66.7409 360 66.8301 360C66.9194 360 67.0086 360 67.0978 360C67.187 360 67.2762 360 67.3653 360C67.4545 360 67.5437 360 67.6329 360C67.7221 360 67.8112 360 67.9004 360C67.9896 360 68.0787 360 68.1679 360C68.2571 360 68.3462 360 68.4353 360C68.5245 360 68.6136 360 68.7028 360C68.7919 360 68.881 360 68.9701 360C69.0592 360 69.1484 360 69.2375 360C69.3266 360 69.4157 360 69.5048 360C69.5939 360 69.683 360 69.772 360C69.8611 360 69.9502 360 70.0393 360C70.1283 360 70.2174 360 70.3064 360C70.3955 360 70.4845 360 70.5736 360C70.6626 360 70.7516 360 70.8407 360C70.9297 360 71.0187 360 71.1077 360C71.1967 360 71.2857 360 71.3747 360C71.4637 360 71.5527 360 71.6417 360C71.7307 360 71.8197 360 71.9086 360C71.9976 360 72.0865 360 72.1755 360C72.2645 360 72.3534 360 72.4423 360C72.5313 360 72.6202 360 72.7091 360C72.798 360 72.8869 360 72.9758 360C73.0648 360 73.1536 360 73.2425 360C73.3314 360 73.4203 360 73.5092 360C73.598 360 73.6869 360 73.7758 360C73.8646 360 73.9535 360 74.0423 360C74.1311 360 74.22 360 74.3088 360C74.3976 360 74.4864 360 74.5752 360C74.664 360 74.7528 360 74.8416 360C74.9304 360 75.0191 360 75.1079 360C75.1967 360 75.2854 360 75.3742 360C75.4629 360 75.5517 360 75.6404 360C75.7291 360 75.8178 360 75.9066 360C75.9953 360 76.084 360 76.1727 360C76.2614 360 76.35 360 76.4387 360C76.5274 360 76.616 360 76.7047 360C76.7933 360 76.882 360 76.9706 360C77.0592 360 77.1479 360 77.2365 360C77.3251 360 77.4137 360 77.5023 360C77.5909 360 77.6795 360 77.768 360C77.8566 360 77.9452 360 78.0337 360C78.1223 360 78.2108 360 78.2993 360C78.3879 360 78.4764 360 78.5649 360C78.6534 360 78.7419 360 78.8304 360C78.9189 360 79.0074 360 79.0958 360C79.1843 360 79.2727 360 79.3612 360C79.4496 360 79.5381 360 79.6265 360C79.7149 360 79.8033 360 79.8917 360C79.9801 360 80.0685 360 80.1569 360C80.2452 360 80.3336 360 80.422 360C80.5103 360 80.5987 360 80.687 360C80.7753 360 80.8636 360 80.9519 360C81.0402 360 81.1285 360 81.2168 360C81.3051 360 81.3934 360 81.4816 360C81.5699 360 81.6581 360 81.7464 360C81.8346 360 81.9228 360 82.011 360C82.0992 360 82.1874 360 82.2756 360C82.3638 360 82.452 360 82.5401 360C82.6283 360 82.7164 360 82.8046 360C82.8927 360 82.9808 360 83.0689 360C83.1571 360 83.2452 360 83.3332 360C83.4213 360 83.5094 360 83.5974 360C83.6855 360 83.7735 360 83.8616 360C83.9496 360 84.0376 360 84.1256 360C84.2136 360 84.3016 360 84.3896 360C84.4776 360 84.5655 360 84.6535 360C84.7414 360 84.8294 360 84.9173 360C85.0052 360 85.0931 360 85.181 360C85.2689 360 85.3568 360 85.4447 360C85.5325 360 85.6204 360 85.7082 360C85.7961 360 85.8839 360 85.9717 360C86.0595 360 86.1473 360 86.2351 360C86.3229 360 86.4107 360 86.4984 360C86.5862 360 86.6739 360 86.7616 360C86.8494 360 86.9371 360 87.0248 360C87.1125 360 87.2001 360 87.2878 360C87.3755 360 87.4631 360 87.5508 360C87.6384 360 87.726 360 87.8136 360C87.9012 360 87.9888 360 88.0764 360C88.164 360 88.2515 360 88.3391 360C88.4266 360 88.5142 360 88.6017 360C88.6892 360 88.7767 360 88.8642 360C88.9517 360 89.0391 360 89.1266 360C89.2141 360 89.3015 360 89.3889 360C89.4763 360 89.5637 360 89.6511 360C89.7385 360 89.8259 360 89.9133 360C90.0006 360 90.088 360 90.1753 360C90.2626 360 90.3499 360 90.4372 360C90.5245 360 90.6118 360 90.699 360C90.7863 360 90.8736 360 90.9608 360C91.048 360 91.1352 360 91.2224 360C91.3096 360 91.3968 360 91.4839 360C91.5711 360 91.6583 360 91.7454 360C91.8325 360 91.9196 360 92.0067 360C92.0938 360 92.1809 360 92.2679 360C92.355 360 92.442 360 92.5291 360C92.6161 360 92.7031 360 92.7901 360C92.8771 360 92.9641 360 93.051 360C93.138 360 93.2249 360 93.3118 360C93.3988 360 93.4856 360 93.5725 360C93.6594 360 93.7463 360 93.8331 360C93.92 360 94.0068 360 94.0936 360C94.1804 360 94.2672 360 94.354 360C94.4408 360 94.5276 360 94.6143 360C94.701 360 94.7878 360 94.8745 360C94.9612 360 95.0479 360 95.1345 360C95.2212 360 95.3078 360 95.3945 360C95.4811 360 95.5677 360 95.6543 360C95.7409 360 95.8275 360 95.914 360C96.0006 360 96.0871 360 96.1736 360C96.2601 360 96.3466 360 96.4331 360C96.5196 360 96.6061 360 96.6925 360C96.7789 360 96.8654 360 96.9518 360C97.0382 360 97.1245 360 97.2109 360C97.2973 360 97.3836 360 97.4699 360C97.5563 360 97.6426 360 97.7289 360C97.8151 360 97.9014 360 97.9876 360C98.0739 360 98.1601 360 98.2463 360C98.3325 360 98.4187 360 98.5049 360C98.591 360 98.6772 360 98.7633 360C98.8494 360 98.9355 360 99.0216 360C99.1077 360 99.1938 360 99.2798 360C99.3658 360 99.4519 360 99.5379 360C99.6239 360 99.7099 360 99.7958 360C99.8818 360 99.9677 360 100.054 360C100.14 360 100.225 360 100.311 360C100.397 360 100.483 360 100.569 360C100.655 360 100.741 360 100.826 360C100.912 360 100.998 360 101.084 360C101.169 360 101.255 360 101.341 360C101.427 360 101.512 360 101.598 360C101.684 360 101.769 360 101.855 360C101.94 360 102.026 360 102.112 360C102.197 360 102.283 360 102.368 360C102.454 360 102.539 360 102.625 360C102.71 360 102.796 360 102.881 360C102.967 360 103.052 360 103.137 360C103.223 360 103.308 360 103.394 360C103.479 360 103.564 360 103.65 360C103.735 360 103.82 360 103.905 360C103.991 360 104.076 360 104.161 360C104.246 360 104.332 360 104.417 360C104.502 360 104.587 360 104.672 360C104.757 360 104.842 360 104.928 360C105.013 360 105.098 360 105.183 360C105.268 360 105.353 360 105.438 360C105.523 360 105.608 360 105.693 360C105.778 360 105.862 360 105.947 360C106.032 360 106.117 360 106.202 360C106.287 360 106.372 360 106.456 360C106.541 360 106.626 360 106.711 360C106.796 360 106.88 360 106.965 360C107.05 360 107.134 360 107.219 360C107.304 360 107.388 360 107.473 360C107.557 360 107.642 360 107.727 360C107.811 360 107.896 360 107.98 360C108.065 360 108.149 360 108.234 360C108.318 360 108.402 360 108.487 360C108.571 360 108.656 360 108.74 360C108.824 360 108.909 360 108.993 360C109.077 360 109.162 360 109.246 360C109.33 360 109.414 360 109.499 360C109.583 360 109.667 360 109.751 360C109.835 360 109.919 360 110.003 360C110.088 360 110.172 360 110.256 360C110.34 360 110.424 360 110.508 360C110.592 360 110.676 360 110.76 360C110.844 360 110.928 360 111.011 360C111.095 360 111.179 360 111.263 360C111.347 360 111.431 360 111.514 360C111.598 360 111.682 360 111.766 360C111.85 360 111.933 360 112.017 360C112.101 360 112.184 360 112.268 360C112.351 360 112.435 360 112.519 360C112.602 360 112.686 360 112.769 360C112.853 360 112.936 360 113.02 360C113.103 360 113.187 360 113.27 360C113.354 360 113.437 360 113.52 360C113.604 360 113.687 360 113.77 360C113.854 360 113.937 360 114.02 360C114.103 360 114.187 360 114.27 360C114.353 360 114.436 360 114.519 360C114.602 360 114.685 360 114.769 360C114.852 360 114.935 360 115.018 360C115.101 360 115.184 360 115.267 360C115.35 360 115.433 360 115.515 360C115.598 360 115.681 360 115.764 360C115.847 360 115.93 360 116.013 360C116.095 360 116.178 360 116.261 360C116.344 360 116.426 360 116.509 360C116.592 360 116.674 360 116.757 360C116.84 360 116.922 360 117.005 360C117.087 360 117.17 360 117.252 360C117.335 360 117.417 360 117.5 360C117.582 360 117.665 360 117.747 360C117.829 360 117.912 360 117.994 360C118.076 360 118.159 360 118.241 360C118.323 360 118.406 360 118.488 360C118.57 360 118.652 360 118.734 360C118.816 360 118.899 360 118.981 360C119.063 360 119.145 360 119.227 360C119.309 360 119.391 360 119.473 360C119.555 360 119.637 360 119.719 360C119.801 360 119.882 360 119.964 360C120.046 360 120.128 360 120.21 360C120.291 360 120.373 360 120.455 360C120.537 360 120.618 360 120.7 360V340C120.618 340 120.537 340 120.455 340C120.373 340 120.291 340 120.21 340C120.128 340 120.046 340 119.964 340C119.882 340 119.801 340 119.719 340C119.637 340 119.555 340 119.473 340C119.391 340 119.309 340 119.227 340C119.145 340 119.063 340 118.981 340C118.899 340 118.816 340 118.734 340C118.652 340 118.57 340 118.488 340C118.406 340 118.323 340 118.241 340C118.159 340 118.076 340 117.994 340C117.912 340 117.829 340 117.747 340C117.665 340 117.582 340 117.5 340C117.417 340 117.335 340 117.252 340C117.17 340 117.087 340 117.005 340C116.922 340 116.84 340 116.757 340C116.674 340 116.592 340 116.509 340C116.426 340 116.344 340 116.261 340C116.178 340 116.095 340 116.013 340C115.93 340 115.847 340 115.764 340C115.681 340 115.598 340 115.515 340C115.433 340 115.35 340 115.267 340C115.184 340 115.101 340 115.018 340C114.935 340 114.852 340 114.769 340C114.685 340 114.602 340 114.519 340C114.436 340 114.353 340 114.27 340C114.187 340 114.103 340 114.02 340C113.937 340 113.854 340 113.77 340C113.687 340 113.604 340 113.52 340C113.437 340 113.354 340 113.27 340C113.187 340 113.103 340 113.02 340C112.936 340 112.853 340 112.769 340C112.686 340 112.602 340 112.519 340C112.435 340 112.351 340 112.268 340C112.184 340 112.101 340 112.017 340C111.933 340 111.85 340 111.766 340C111.682 340 111.598 340 111.514 340C111.431 340 111.347 340 111.263 340C111.179 340 111.095 340 111.011 340C110.928 340 110.844 340 110.76 340C110.676 340 110.592 340 110.508 340C110.424 340 110.34 340 110.256 340C110.172 340 110.088 340 110.003 340C109.919 340 109.835 340 109.751 340C109.667 340 109.583 340 109.499 340C109.414 340 109.33 340 109.246 340C109.162 340 109.077 340 108.993 340C108.909 340 108.824 340 108.74 340C108.656 340 108.571 340 108.487 340C108.402 340 108.318 340 108.234 340C108.149 340 108.065 340 107.98 340C107.896 340 107.811 340 107.727 340C107.642 340 107.557 340 107.473 340C107.388 340 107.304 340 107.219 340C107.134 340 107.05 340 106.965 340C106.88 340 106.796 340 106.711 340C106.626 340 106.541 340 106.456 340C106.372 340 106.287 340 106.202 340C106.117 340 106.032 340 105.947 340C105.862 340 105.778 340 105.693 340C105.608 340 105.523 340 105.438 340C105.353 340 105.268 340 105.183 340C105.098 340 105.013 340 104.928 340C104.842 340 104.757 340 104.672 340C104.587 340 104.502 340 104.417 340C104.332 340 104.246 340 104.161 340C104.076 340 103.991 340 103.905 340C103.82 340 103.735 340 103.65 340C103.564 340 103.479 340 103.394 340C103.308 340 103.223 340 103.137 340C103.052 340 102.967 340 102.881 340C102.796 340 102.71 340 102.625 340C102.539 340 102.454 340 102.368 340C102.283 340 102.197 340 102.112 340C102.026 340 101.94 340 101.855 340C101.769 340 101.684 340 101.598 340C101.512 340 101.427 340 101.341 340C101.255 340 101.169 340 101.084 340C100.998 340 100.912 340 100.826 340C100.741 340 100.655 340 100.569 340C100.483 340 100.397 340 100.311 340C100.225 340 100.14 340 100.054 340C99.9677 340 99.8818 340 99.7958 340C99.7099 340 99.6239 340 99.5379 340C99.4519 340 99.3658 340 99.2798 340C99.1938 340 99.1077 340 99.0216 340C98.9355 340 98.8494 340 98.7633 340C98.6772 340 98.591 340 98.5049 340C98.4187 340 98.3325 340 98.2463 340C98.1601 340 98.0739 340 97.9876 340C97.9014 340 97.8151 340 97.7289 340C97.6426 340 97.5563 340 97.4699 340C97.3836 340 97.2973 340 97.2109 340C97.1245 340 97.0382 340 96.9518 340C96.8654 340 96.7789 340 96.6925 340C96.6061 340 96.5196 340 96.4331 340C96.3466 340 96.2601 340 96.1736 340C96.0871 340 96.0006 340 95.914 340C95.8275 340 95.7409 340 95.6543 340C95.5677 340 95.4811 340 95.3945 340C95.3078 340 95.2212 340 95.1345 340C95.0479 340 94.9612 340 94.8745 340C94.7878 340 94.701 340 94.6143 340C94.5276 340 94.4408 340 94.354 340C94.2672 340 94.1804 340 94.0936 340C94.0068 340 93.92 340 93.8331 340C93.7463 340 93.6594 340 93.5725 340C93.4856 340 93.3988 340 93.3118 340C93.2249 340 93.138 340 93.051 340C92.9641 340 92.8771 340 92.7901 340C92.7031 340 92.6161 340 92.5291 340C92.442 340 92.355 340 92.2679 340C92.1809 340 92.0938 340 92.0067 340C91.9196 340 91.8325 340 91.7454 340C91.6583 340 91.5711 340 91.4839 340C91.3968 340 91.3096 340 91.2224 340C91.1352 340 91.048 340 90.9608 340C90.8736 340 90.7863 340 90.699 340C90.6118 340 90.5245 340 90.4372 340C90.3499 340 90.2626 340 90.1753 340C90.088 340 90.0006 340 89.9133 340C89.8259 340 89.7385 340 89.6511 340C89.5637 340 89.4763 340 89.3889 340C89.3015 340 89.2141 340 89.1266 340C89.0391 340 88.9517 340 88.8642 340C88.7767 340 88.6892 340 88.6017 340C88.5142 340 88.4266 340 88.3391 340C88.2515 340 88.164 340 88.0764 340C87.9888 340 87.9012 340 87.8136 340C87.726 340 87.6384 340 87.5508 340C87.4631 340 87.3755 340 87.2878 340C87.2001 340 87.1125 340 87.0248 340C86.9371 340 86.8494 340 86.7616 340C86.6739 340 86.5862 340 86.4984 340C86.4107 340 86.3229 340 86.2351 340C86.1473 340 86.0595 340 85.9717 340C85.8839 340 85.7961 340 85.7082 340C85.6204 340 85.5325 340 85.4447 340C85.3568 340 85.2689 340 85.181 340C85.0931 340 85.0052 340 84.9173 340C84.8294 340 84.7414 340 84.6535 340C84.5655 340 84.4776 340 84.3896 340C84.3016 340 84.2136 340 84.1256 340C84.0376 340 83.9496 340 83.8616 340C83.7735 340 83.6855 340 83.5974 340C83.5094 340 83.4213 340 83.3332 340C83.2452 340 83.1571 340 83.0689 340C82.9808 340 82.8927 340 82.8046 340C82.7164 340 82.6283 340 82.5401 340C82.452 340 82.3638 340 82.2756 340C82.1874 340 82.0992 340 82.011 340C81.9228 340 81.8346 340 81.7464 340C81.6581 340 81.5699 340 81.4816 340C81.3934 340 81.3051 340 81.2168 340C81.1285 340 81.0402 340 80.9519 340C80.8636 340 80.7753 340 80.687 340C80.5987 340 80.5103 340 80.422 340C80.3336 340 80.2452 340 80.1569 340C80.0685 340 79.9801 340 79.8917 340C79.8033 340 79.7149 340 79.6265 340C79.5381 340 79.4496 340 79.3612 340C79.2727 340 79.1843 340 79.0958 340C79.0074 340 78.9189 340 78.8304 340C78.7419 340 78.6534 340 78.5649 340C78.4764 340 78.3879 340 78.2993 340C78.2108 340 78.1223 340 78.0337 340C77.9452 340 77.8566 340 77.768 340C77.6795 340 77.5909 340 77.5023 340C77.4137 340 77.3251 340 77.2365 340C77.1479 340 77.0592 340 76.9706 340C76.882 340 76.7933 340 76.7047 340C76.616 340 76.5274 340 76.4387 340C76.35 340 76.2614 340 76.1727 340C76.084 340 75.9953 340 75.9066 340C75.8178 340 75.7291 340 75.6404 340C75.5517 340 75.4629 340 75.3742 340C75.2854 340 75.1967 340 75.1079 340C75.0191 340 74.9304 340 74.8416 340C74.7528 340 74.664 340 74.5752 340C74.4864 340 74.3976 340 74.3088 340C74.22 340 74.1311 340 74.0423 340C73.9535 340 73.8646 340 73.7758 340C73.6869 340 73.598 340 73.5092 340C73.4203 340 73.3314 340 73.2425 340C73.1536 340 73.0648 340 72.9758 340C72.8869 340 72.798 340 72.7091 340C72.6202 340 72.5313 340 72.4423 340C72.3534 340 72.2645 340 72.1755 340C72.0865 340 71.9976 340 71.9086 340C71.8197 340 71.7307 340 71.6417 340C71.5527 340 71.4637 340 71.3747 340C71.2857 340 71.1967 340 71.1077 340C71.0187 340 70.9297 340 70.8407 340C70.7516 340 70.6626 340 70.5736 340C70.4845 340 70.3955 340 70.3064 340C70.2174 340 70.1283 340 70.0393 340C69.9502 340 69.8611 340 69.772 340C69.683 340 69.5939 340 69.5048 340C69.4157 340 69.3266 340 69.2375 340C69.1484 340 69.0592 340 68.9701 340C68.881 340 68.7919 340 68.7028 340C68.6136 340 68.5245 340 68.4353 340C68.3462 340 68.2571 340 68.1679 340C68.0787 340 67.9896 340 67.9004 340C67.8112 340 67.7221 340 67.6329 340C67.5437 340 67.4545 340 67.3653 340C67.2762 340 67.187 340 67.0978 340C67.0086 340 66.9194 340 66.8301 340C66.7409 340 66.6517 340 66.5625 340C66.4733 340 66.3841 340 66.2948 340C66.2056 340 66.1164 340 66.0271 340C65.9379 340 65.8486 340 65.7594 340C65.6701 340 65.5809 340 65.4916 340C65.4024 340 65.3131 340 65.2238 340C65.1345 340 65.0453 340 64.956 340C64.8667 340 64.7774 340 64.6881 340C64.5989 340 64.5096 340 64.4203 340C64.331 340 64.2417 340 64.1524 340C64.0631 340 63.9738 340 63.8845 340C63.7951 340 63.7058 340 63.6165 340C63.5272 340 63.4379 340 63.3485 340C63.2592 340 63.1699 340 63.0806 340C62.9912 340 62.9019 340 62.8125 340C62.7232 340 62.6339 340 62.5445 340C62.4552 340 62.3658 340 62.2765 340C62.1871 340 62.0978 340 62.0084 340C61.919 340 61.8297 340 61.7403 340C61.6509 340 61.5616 340 61.4722 340C61.3828 340 61.2935 340 61.2041 340C61.1147 340 61.0253 340 60.9359 340C60.8466 340 60.7572 340 60.6678 340C60.5784 340 60.489 340 60.3996 340C60.3102 340 60.2208 340 60.1314 340C60.0421 340 59.9527 340 59.8633 340C59.7739 340 59.6844 340 59.595 340C59.5056 340 59.4162 340 59.3268 340C59.2374 340 59.148 340 59.0586 340C58.9692 340 58.8798 340 58.7904 340C58.701 340 58.6115 340 58.5221 340C58.4327 340 58.3433 340 58.2539 340C58.1644 340 58.075 340 57.9856 340C57.8962 340 57.8068 340 57.7173 340C57.6279 340 57.5385 340 57.4491 340C57.3596 340 57.2702 340 57.1808 340C57.0914 340 57.0019 340 56.9125 340C56.8231 340 56.7336 340 56.6442 340C56.5548 340 56.4653 340 56.3759 340C56.2865 340 56.197 340 56.1076 340C56.0182 340 55.9287 340 55.8393 340C55.7499 340 55.6605 340 55.571 340C55.4816 340 55.3922 340 55.3027 340C55.2133 340 55.1239 340 55.0344 340C54.945 340 54.8556 340 54.7661 340C54.6767 340 54.5873 340 54.4978 340C54.4084 340 54.319 340 54.2295 340C54.1401 340 54.0507 340 53.9613 340C53.8718 340 53.7824 340 53.693 340C53.6035 340 53.5141 340 53.4247 340C53.3353 340 53.2458 340 53.1564 340C53.067 340 52.9776 340 52.8882 340C52.7987 340 52.7093 340 52.6199 340C52.5305 340 52.4411 340 52.3516 340C52.2622 340 52.1728 340 52.0834 340C51.994 340 51.9046 340 51.8152 340C51.7258 340 51.6363 340 51.5469 340C51.4575 340 51.3681 340 51.2787 340C51.1893 340 51.0999 340 51.0105 340C50.9211 340 50.8317 340 50.7423 340C50.6529 340 50.5636 340 50.4742 340C50.3848 340 50.2954 340 50.206 340C50.1166 340 50.0272 340 49.9379 340C49.8485 340 49.7591 340 49.6697 340C49.5804 340 49.491 340 49.4016 340C49.3122 340 49.2229 340 49.1335 340C49.0442 340 48.9548 340 48.8654 340C48.7761 340 48.6867 340 48.5974 340C48.508 340 48.4187 340 48.3293 340C48.24 340 48.1506 340 48.0613 340C47.972 340 47.8826 340 47.7933 340C47.704 340 47.6146 340 47.5253 340C47.436 340 47.3467 340 47.2574 340C47.168 340 47.0787 340 46.9894 340C46.9001 340 46.8108 340 46.7215 340C46.6322 340 46.5429 340 46.4536 340C46.3643 340 46.275 340 46.1858 340C46.0965 340 46.0072 340 45.9179 340C45.8287 340 45.7394 340 45.6501 340C45.5608 340 45.4716 340 45.3823 340C45.2931 340 45.2038 340 45.1146 340C45.0253 340 44.9361 340 44.8468 340C44.7576 340 44.6684 340 44.5791 340C44.4899 340 44.4007 340 44.3115 340C44.2223 340 44.1331 340 44.0438 340C43.9546 340 43.8654 340 43.7762 340C43.687 340 43.5979 340 43.5087 340C43.4195 340 43.3303 340 43.2411 340C43.152 340 43.0628 340 42.9736 340C42.8845 340 42.7953 340 42.7062 340C42.617 340 42.5279 340 42.4387 340C42.3496 340 42.2605 340 42.1713 340C42.0822 340 41.9931 340 41.904 340C41.8149 340 41.7257 340 41.6366 340C41.5475 340 41.4585 340 41.3694 340C41.2803 340 41.1912 340 41.1021 340C41.013 340 40.924 340 40.8349 340C40.7458 340 40.6568 340 40.5677 340C40.4787 340 40.3897 340 40.3006 340C40.2116 340 40.1226 340 40.0335 340C39.9445 340 39.8555 340 39.7665 340C39.6775 340 39.5885 340 39.4995 340C39.4105 340 39.3215 340 39.2326 340C39.1436 340 39.0546 340 38.9657 340C38.8767 340 38.7877 340 38.6988 340C38.6098 340 38.5209 340 38.432 340C38.3431 340 38.2541 340 38.1652 340C38.0763 340 37.9874 340 37.8985 340C37.8096 340 37.7207 340 37.6318 340C37.543 340 37.4541 340 37.3652 340C37.2764 340 37.1875 340 37.0986 340C37.0098 340 36.921 340 36.8321 340C36.7433 340 36.6545 340 36.5657 340C36.4769 340 36.388 340 36.2993 340C36.2105 340 36.1217 340 36.0329 340C35.9441 340 35.8553 340 35.7666 340C35.6778 340 35.5891 340 35.5003 340C35.4116 340 35.3229 340 35.2341 340C35.1454 340 35.0567 340 34.968 340C34.8793 340 34.7906 340 34.7019 340C34.6132 340 34.5246 340 34.4359 340C34.3472 340 34.2586 340 34.1699 340C34.0813 340 33.9927 340 33.904 340C33.8154 340 33.7268 340 33.6382 340C33.5496 340 33.461 340 33.3724 340C33.2838 340 33.1953 340 33.1067 340C33.0181 340 32.9296 340 32.841 340C32.7525 340 32.6639 340 32.5754 340C32.4869 340 32.3984 340 32.3099 340C32.2214 340 32.1329 340 32.0444 340C31.9559 340 31.8675 340 31.779 340C31.6906 340 31.6021 340 31.5137 340C31.4252 340 31.3368 340 31.2484 340C31.16 340 31.0716 340 30.9832 340C30.8948 340 30.8064 340 30.7181 340C30.6297 340 30.5414 340 30.453 340C30.3647 340 30.2763 340 30.188 340C30.0997 340 30.0114 340 29.9231 340C29.8348 340 29.7465 340 29.6582 340C29.57 340 29.4817 340 29.3934 340C29.3052 340 29.217 340 29.1287 340C29.0405 340 28.9523 340 28.8641 340C28.7759 340 28.6877 340 28.5995 340C28.5114 340 28.4232 340 28.335 340C28.2469 340 28.1588 340 28.0706 340C27.9825 340 27.8944 340 27.8063 340C27.7182 340 27.6301 340 27.542 340C27.454 340 27.3659 340 27.2779 340C27.1898 340 27.1018 340 27.0138 340C26.9257 340 26.8377 340 26.7497 340C26.6617 340 26.5738 340 26.4858 340C26.3978 340 26.3099 340 26.2219 340C26.134 340 26.0461 340 25.9582 340C25.8702 340 25.7823 340 25.6945 340C25.6066 340 25.5187 340 25.4308 340C25.343 340 25.2551 340 25.1673 340C25.0795 340 24.9917 340 24.9039 340C24.8161 340 24.7283 340 24.6405 340C24.5527 340 24.465 340 24.3772 340C24.2895 340 24.2018 340 24.114 340C24.0263 340 23.9386 340 23.8509 340C23.7633 340 23.6756 340 23.5879 340C23.5003 340 23.4126 340 23.325 340C23.2374 340 23.1498 340 23.0622 340C22.9746 340 22.887 340 22.7994 340C22.7119 340 22.6243 340 22.5368 340C22.4493 340 22.3617 340 22.2742 340C22.1867 340 22.0992 340 22.0118 340C21.9243 340 21.8368 340 21.7494 340C21.6619 340 21.5745 340 21.4871 340C21.3997 340 21.3123 340 21.2249 340C21.1376 340 21.0502 340 20.9628 340C20.8755 340 20.7882 340 20.7009 340C20.6135 340 20.5262 340 20.439 340C20.3517 340 20.2644 340 20.1772 340C20.0899 340 20.0027 340 19.9155 340C19.8283 340 19.7411 340 19.6539 340C19.5667 340 19.4795 340 19.3924 340C19.3052 340 19.2181 340 19.131 340C19.0439 340 18.9568 340 18.8697 340C18.7826 340 18.6955 340 18.6085 340C18.5215 340 18.4344 340 18.3474 340C18.2604 340 18.1734 340 18.0864 340C17.9994 340 17.9125 340 17.8255 340C17.7386 340 17.6517 340 17.5648 340C17.4779 340 17.391 340 17.3041 340C17.2172 340 17.1304 340 17.0435 340C16.9567 340 16.8699 340 16.7831 340C16.6963 340 16.6095 340 16.5227 340C16.436 340 16.3492 340 16.2625 340C16.1758 340 16.0891 340 16.0024 340C15.9157 340 15.829 340 15.7424 340C15.6557 340 15.5691 340 15.4825 340C15.3958 340 15.3092 340 15.2227 340C15.1361 340 15.0495 340 14.963 340C14.8765 340 14.7899 340 14.7034 340C14.6169 340 14.5304 340 14.444 340C14.3575 340 14.2711 340 14.1846 340C14.0982 340 14.0118 340 13.9254 340C13.839 340 13.7527 340 13.6663 340C13.58 340 13.4936 340 13.4073 340C13.321 340 13.2347 340 13.1485 340C13.0622 340 12.9759 340 12.8897 340C12.8035 340 12.7173 340 12.6311 340C12.5449 340 12.4587 340 12.3726 340C12.2864 340 12.2003 340 12.1142 340C12.0281 340 11.942 340 11.8559 340C11.7699 340 11.6838 340 11.5978 340C11.5118 340 11.4258 340 11.3398 340C11.2538 340 11.1678 340 11.0819 340C10.9959 340 10.91 340 10.8241 340C10.7382 340 10.6523 340 10.5665 340C10.4806 340 10.3948 340 10.3089 340C10.2231 340 10.1373 340 10.0515 340C9.96577 340 9.88001 340 9.79428 340C9.70855 340 9.62284 340 9.53714 340C9.45145 340 9.36579 340 9.28014 340C9.19449 340 9.10887 340 9.02326 340C8.93766 340 8.85208 340 8.76652 340C8.68096 340 8.59542 340 8.5099 340C8.42439 340 8.33889 340 8.25342 340C8.16795 340 8.0825 340 7.99707 340C7.91164 340 7.82624 340 7.74086 340C7.65548 340 7.57011 340 7.48478 340C7.39944 340 7.31413 340 7.22883 340C7.14354 340 7.05827 340 6.97302 340C6.88778 340 6.80255 340 6.71735 340C6.63215 340 6.54697 340 6.46181 340C6.37666 340 6.29153 340 6.20642 340C6.12131 340 6.03622 340 5.95116 340C5.8661 340 5.78106 340 5.69604 340C5.61103 340 5.52603 340 5.44106 340C5.35609 340 5.27115 340 5.18623 340C5.10131 340 5.01641 340 4.93153 340C4.84666 340 4.76181 340 4.67698 340C4.59216 340 4.50735 340 4.42257 340C4.3378 340 4.25304 340 4.16831 340C4.08358 340 3.99887 340 3.91419 340C3.82951 340 3.74485 340 3.66021 340C3.57558 340 3.49097 340 3.40639 340C3.3218 340 3.23724 340 3.15271 340C3.06817 340 2.98366 340 2.89917 340C2.81469 340 2.73023 340 2.64579 340C2.56136 340 2.47694 340 2.39256 340C2.30817 340 2.22381 340 2.13947 340C2.05514 340 1.97083 340 1.88654 340C1.80225 340 1.71799 340 1.63376 340C1.54952 340 1.46531 340 1.38113 340C1.29694 340 1.21278 340 1.12865 340C1.04452 340 0.960411 340 0.876329 340C0.792248 340 0.708191 340 0.624161 340C0.540131 340 0.456127 340 0.372149 340C0.28817 340 0.204218 340 0.120291 340C0.0363655 340 -0.0475349 340 -0.131409 340C-0.215282 340 -0.299129 340 -0.38295 340C-0.466772 340 -0.550566 340 -0.634335 340C-0.718102 340 -0.801844 340 -0.885559 340C-0.969275 340 -1.05296 340 -1.13662 340C-1.22029 340 -1.30392 340 -1.38753 340C-1.47114 340 -1.55472 340 -1.63827 340C-1.72182 340 -1.80535 340 -1.88885 340C-1.97235 340 -2.05582 340 -2.13927 340C-2.22272 340 -2.30614 340 -2.38953 340C-2.47292 340 -2.55628 340 -2.63962 340C-2.72295 340 -2.80626 340 -2.88954 340C-2.97282 340 -3.05608 340 -3.1393 340C-3.22253 340 -3.30573 340 -3.3889 340C-3.47206 340 -3.55521 340 -3.63832 340C-3.72144 340 -3.80452 340 -3.88758 340C-3.97064 340 -4.05367 340 -4.13667 340C-4.21967 340 -4.30264 340 -4.38559 340C-4.46853 340 -4.55145 340 -4.63434 340C-4.71723 340 -4.80009 340 -4.88292 340C-4.96575 340 -5.04855 340 -5.13132 340C-5.2141 340 -5.29684 340 -5.37956 340C-5.46227 340 -5.54496 340 -5.62762 340C-5.71028 340 -5.79291 340 -5.87551 340C-5.95811 340 -6.04068 340 -6.12322 340C-6.20576 340 -6.28827 340 -6.37076 340C-6.45324 340 -6.53569 340 -6.61812 340C-6.70054 340 -6.78294 340 -6.8653 340C-6.94767 340 -7.03 340 -7.11231 340C-7.19461 340 -7.27689 340 -7.35914 340C-7.44138 340 -7.5236 340 -7.60579 340C-7.68797 340 -7.77013 340 -7.85225 340C-7.93438 340 -8.01648 340 -8.09854 340C-8.18061 340 -8.26265 340 -8.34465 340C-8.42666 340 -8.50863 340 -8.59058 340C-8.67252 340 -8.75443 340 -8.83632 340C-8.9182 340 -9.00006 340 -9.08188 340C-9.1637 340 -9.24549 340 -9.32725 340C-9.40901 340 -9.49074 340 -9.57244 340C-9.65414 340 -9.73581 340 -9.81744 340C-9.89908 340 -9.98069 340 -10.0623 340C-10.1438 340 -10.2254 340 -10.3069 340C-10.3884 340 -10.4699 340 -10.5513 340C-10.6328 340 -10.7142 340 -10.7956 340C-10.877 340 -10.9583 340 -11.0396 340C-11.121 340 -11.2023 340 -11.2835 340C-11.3648 340 -11.446 340 -11.5272 340C-11.6084 340 -11.6896 340 -11.7707 340C-11.8518 340 -11.9329 340 -12.014 340C-12.0951 340 -12.1761 340 -12.2571 340C-12.3381 340 -12.4191 340 -12.5 340V360ZM120.7 360C182.732 360 228.431 337.279 258.296 302.494C287.967 267.936 301.303 222.311 300.529 177.408L280.531 177.752C281.237 218.689 269.043 259.274 243.122 289.466C217.394 319.431 177.438 340 120.7 340V360ZM300.528 177.404C299.755 133.522 285.835 89.3552 256.246 56.0113C226.465 22.4515 181.552 0.70998 120.7 0.70998V20.71C176.398 20.71 215.66 40.4085 241.287 69.2862C267.105 98.3798 279.825 137.648 280.532 177.756L300.528 177.404ZM50.77 81.02H120.7V61.02H50.77V81.02ZM120.7 81.02C154.884 81.02 178.2 93.1834 193.287 110.63C208.599 128.335 216.202 152.393 216.894 177.12L236.886 176.56C236.098 148.377 227.421 119.525 208.415 97.5475C189.186 75.3116 160.146 61.02 120.7 61.02V81.02ZM216.894 177.107C217.587 203.099 210.793 228.508 195.589 247.215C180.628 265.622 156.698 278.58 120.7 278.58V298.58C162.032 298.58 191.937 283.418 211.109 259.83C230.037 236.542 237.673 206.081 236.886 176.573L216.894 177.107ZM120.7 278.58H50.77V298.58H120.7V278.58ZM60.77 288.58V71.02H40.77V288.58H60.77Z" fill="#F2F2F2"/>
</svg>
